<svg xmlns="http://www.w3.org/2000/svg" viewBox="0 0 120 120" enable-background="new 0 0 120 120"><path fill="#FF382C" d="M-418.8-127.6c0 35.1-28.4 63.5-63.5 63.5s-63.5-28.4-63.5-63.5 28.4-63.5 63.5-63.5 63.5 28.4 63.5 63.5z"/><path fill="#fff" d="M-493.5-151.2h-23.2v14.2h18.4v31h14.099999999999998v-45.2h-9.3zM-452.5-120.1h-14.8v-31.099999999999998h-12.7v45.2h31.1v-14.1h-3.6z"/><path fill="#FF372C" d="M-.4-.8h121v121h-121z"/><path fill="#fff" d="M81.5 68.8v5.5h-20.400000000000002v-29.6h8.5v20.400000000000002h11.799999999999999v3.7h.1zm-22.9-20.9v26.5h-9.2v-20.4h-11.8v-9.2h21v3.1zm1.3-29.2c-22.9 0-41.5 18.6-41.5 41.5s18.6 41.5 41.5 41.5 41.5-18.6 41.5-41.5-18.5-41.5-41.5-41.5z"/></svg>