<svg xmlns="http://www.w3.org/2000/svg" viewBox="0 0 152 152" enable-background="new 0 0 152 152"><path fill="#FF382C" d="M-402.8-111.6c0 35.1-28.4 63.5-63.5 63.5s-63.5-28.4-63.5-63.5 28.4-63.5 63.5-63.5 63.5 28.4 63.5 63.5z"/><path fill="#fff" d="M-477.5-135.2h-23.2v14.2h18.4v31h14.099999999999998v-45.2h-9.3zM-436.5-104.1h-14.8v-31.099999999999998h-12.7v45.2h31.1v-14.1h-3.6z"/><path fill="#FF372C" d="M-.4-.8h153v153h-153z"/><path fill="#fff" d="M105.8 85.6v7h-25.8v-37.300000000000004h11v25.700000000000003h14.9v4.6h-.1zm-28.9-26.3v33.50000000000001h-11.6v-25.800000000000004h-14.899999999999999v-11.7h26.6v4h-.1zm1.7-37c-29 0-52.5 23.5-52.5 52.5s23.5 52.5 52.5 52.5 52.5-23.5 52.5-52.5-23.5-52.5-52.5-52.5z"/></svg>