<svg xmlns="http://www.w3.org/2000/svg" viewBox="0 0 114 114" enable-background="new 0 0 114 114"><path fill="#FF382C" d="M-421.8-130.6c0 35.1-28.4 63.5-63.5 63.5s-63.5-28.4-63.5-63.5 28.4-63.5 63.5-63.5 63.5 28.4 63.5 63.5z"/><path fill="#fff" d="M-496.5-154.2h-23.2v14.2h18.4v31h14.099999999999998v-45.2h-9.3zM-455.5-123.1h-14.8v-31.099999999999998h-12.7v45.2h31.1v-14.1h-3.6z"/><path fill="#FF372C" d="M-.4-.8h115v115h-115z"/><path fill="#fff" d="M78.7 64.7v5.3h-19.1v-28h8v19.1h11.2v3.6h-.1zm-21.7-19.8v25.1h-8.7v-19.099999999999998h-11.200000000000001v-8.899999999999999h19.900000000000002v2.9zm1.2-27.8c-21.8 0-39.5 17.7-39.5 39.5s17.7 39.5 39.5 39.5 39.5-17.7 39.5-39.5-17.7-39.5-39.5-39.5z"/></svg>