<svg xmlns="http://www.w3.org/2000/svg" viewBox="0 0 500 90" enable-background="new 0 0 500 90"><path fill="#FF382C" d="M87.4 45c0 23.2-18.8 42.1-42.1 42.1-23.2 0-42.1-18.9-42.1-42.1s18.9-42.1 42.1-42.1c23.3 0 42.1 18.9 42.1 42.1z"/><path fill="#fff" d="M37.9 30.5h-15.2v8.3h12.1v20.4h8.899999999999999v-28.700000000000003h-5.8zM65.1 50.9h-9.3v-20.400000000000002h-9.5v28.700000000000003h20.999999999999996v-8.3h-2.2z"/><path fill="#3B3434" d="M140.8 31.6v26.3h-8.2v-19.7h-10.7v-6.6h18.9zM174.4 44.2c1.3-.1 2.1-.5 2.6-1 .6-.5.8-1.3.8-2.4 0-1-.3-1.6-.9-2-.6-.5-1.7-.6-3.2-.6h-1.9v6h2.6zm-2.7 13.7h-8.2v-26.3h11.6c3.7 0 6.5.7 8.4 2.3 1.9 1.6 2.8 3.6 2.8 6.3 0 1.7-.4 3.2-1.2 4.5-.8 1.3-2.1 2.3-3.9 3l6.5 10.1h-9.2l-4.6-8-2.2.2v7.9zM233.5 52.2c-.6 1.5-1.3 2.7-2.4 3.6-1.1 1-2.3 1.7-3.8 2.1-1.5.5-3.1.7-4.9.7-1.7 0-3.3-.2-4.8-.6-1.5-.4-2.8-1-3.9-1.9-1.1-.9-1.8-2-2.4-3.4-.6-1.4-.8-3.1-.8-5.1v-15.9h8.2v14.9c0 1.8.2 3.1.9 3.9.6.8 1.6 1.3 3.1 1.3 1.4 0 2.2-.4 2.8-1.1.6-.7.7-2 .7-3.9v-15.1h8.2v15.2c-.2 2-.3 3.8-.9 5.3zM272.5 38.2v19.7h-8.2v-19.7h-7.4v-6.6h23.8v6.6h-8.2zM319.8 57.9v-9.9h-8.2v9.9h-8.2v-26.3h8.2v9.9h8.2v-9.9h8.2v26.3h-8.2zM351 57.9v-26.3h3.2v23h13.1v3.3h-16.3zM402.5 35.6l-4.6 12.4h9.1l-4.5-12.4zm11.8 22.3h-3.7l-2.5-6.6h-11.4l-2.5 6.6h-3.7l9.9-26.2h4.1l9.8 26.2zM452.5 50.5c0-1.5-.6-2.6-1.8-3.2-1.2-.6-2.7-.9-4.6-.9h-5v8.2h5.5c4 0 5.9-1.3 5.9-4.1zm-.8-11.6c0-1.3-.4-2.2-1.3-2.9-.9-.7-2.2-1-4-1h-5.2v8.2h4.7c1.9 0 3.4-.4 4.4-1.2.9-.8 1.4-1.8 1.4-3.1zm-.9 5.5c1.8.4 3.1 1.2 4 2.3.9 1.1 1.3 2.3 1.3 3.8 0 1.1-.2 2.1-.6 3-.4.9-1 1.7-1.8 2.3-.8.7-1.8 1.1-3.1 1.5-1.2.4-2.7.5-4.4.5h-9.3v-26.2h9c3.2 0 5.5.6 7 1.9 1.5 1.3 2.2 3 2.2 5 .2 2.8-1.3 4.7-4.3 5.9zM487.5 55.3c1.7 0 3.1-.4 4.1-1.2 1.1-.8 1.6-1.9 1.6-3.2 0-1.3-.5-2.3-1.5-3-1-.7-2.6-1.3-4.8-1.8l-2.8-.9c-.9-.4-1.8-.8-2.5-1.4-.7-.6-1.4-1.3-1.8-2.2-.5-.9-.7-1.9-.7-3.2 0-1.1.2-2.1.6-3 .4-.9 1-1.7 1.8-2.4s1.7-1.2 2.8-1.5c1.1-.4 2.3-.5 3.6-.5 3 0 5.8.8 8.3 2.3l-1.3 3.1c-1-.7-2.1-1.2-3.4-1.6-1.2-.4-2.4-.6-3.6-.6-1.9 0-3.3.4-4.1 1.1-.8.8-1.2 1.7-1.2 2.8 0 1.3.5 2.3 1.6 2.9 1.1.6 2.7 1.2 4.8 1.8 1 .3 1.9.6 2.8 1 .9.4 1.8.9 2.5 1.5s1.3 1.4 1.8 2.2c.4.9.7 1.9.7 3.2 0 1.1-.2 2.2-.7 3.1-.5 1-1.1 1.8-1.9 2.5-.8.7-1.8 1.2-2.9 1.6-1.1.4-2.4.6-3.8.6-1.5 0-3.1-.2-4.6-.6-1.5-.4-2.9-1.1-4.2-1.9l1.2-3.3c1.1.7 2.3 1.3 3.5 1.8 1.2.6 2.6.8 4.1.8z"/></svg>