<svg xmlns="http://www.w3.org/2000/svg" viewBox="0 0 114 114" enable-background="new 0 0 114 114"><path fill="#FF382C" d="M-421.8-130.6c0 35.1-28.4 63.5-63.5 63.5s-63.5-28.4-63.5-63.5 28.4-63.5 63.5-63.5 63.5 28.4 63.5 63.5z"/><path fill="#fff" d="M-496.5-154.2h-23.2v14.2h18.4v31h14.099999999999998v-45.2h-9.3zM-455.5-123.1h-14.8v-31.099999999999998h-12.7v45.2h31.1v-14.1h-3.6z"/><path fill="#FF372C" d="M-1.4.2h115v114h-115z"/><path fill="#fff" d="M77.8 65.4v5.199999999999999h-19.1v-27.7h8v19.1h11.100000000000001v3.4zm-21.8-19.6v24.8h-8.7v-19.099999999999998h-11.200000000000001v-8.6h19.900000000000002v2.9zm1.3-27.6c-21.8 0-39.5 17.5-39.5 39.1s17.7 39.1 39.5 39.1 39.5-17.4 39.5-39-17.7-39.2-39.5-39.2z"/></svg>