<?xml version="1.0" encoding="utf-8"?>
<!-- Generator: Adobe Illustrator 17.1.0, SVG Export Plug-In . SVG Version: 6.00 Build 0)  -->
<!DOCTYPE svg PUBLIC "-//W3C//DTD SVG 1.1//EN" "http://www.w3.org/Graphics/SVG/1.1/DTD/svg11.dtd">
<svg version="1.1" id="Layer_1" xmlns="http://www.w3.org/2000/svg" xmlns:xlink="http://www.w3.org/1999/xlink" x="0px" y="0px"
	 viewBox="0 0 48 48" enable-background="new 0 0 48 48" xml:space="preserve">
<g>
	<path fill="#FFFFFF" d="M39.5,7.8c-1-2.6-3.6-4.4-6.5-4.4c-0.2,0-0.6,0-0.9,0c-1.6-1.3-3.4-1.9-5.4-1.9c-2.9,0-5.4,1.3-7.1,3.4
		c1.6,0.4,3.2,1.1,4.7,2.1c0.2,0,0.4,0,0.6,0c4.1,0,7.9,2.3,9.8,5.8c4.2,0.4,7.7,3.1,9.3,6.6c1.6-1.2,2.7-3.1,2.7-5.1
		C46.6,10.7,43.3,7.7,39.5,7.8z"/>
	<path fill="#FFFFFF" d="M33.5,15.5c-0.2,0-0.4,0-0.6,0c-1.2-3.4-4.4-5.7-8.1-5.7c-0.3,0-0.9,0-1.4,0.1c-2.1-1.7-4.4-2.6-6.9-2.6
		c-5.6,0-10.1,4-11.1,9.6c-2.4,1.6-4,4.1-4,6.6c0,4.2,3.3,7.6,7.5,8L8.6,32c-0.4,0.9,0,2,0.9,2.4c0.2,0.1,0.5,0.2,0.7,0.2
		c0.7,0,1.3-0.4,1.6-1l0.9-1.9h5.9L18.5,32c-0.4,0.9,0,2,0.9,2.4c0.2,0.1,0.5,0.2,0.7,0.2c0.7,0,1.3-0.4,1.6-1l0.9-1.9h5.9L28.4,32
		c-0.4,0.9,0,2,0.9,2.4c0.2,0.1,0.5,0.2,0.7,0.2c0.7,0,1.3-0.4,1.6-1l0.9-1.9h1c4.7,0,8.6-3.7,8.6-8C42.1,19.2,38.2,15.5,33.5,15.5z
		"/>
	<path fill="#FFFFFF" d="M17.9,37.6c-0.9-0.4-2,0-2.4,0.9l-2.5,5.4c-0.4,0.9,0,2,0.9,2.4c0.2,0.1,0.5,0.2,0.7,0.2
		c0.7,0,1.3-0.4,1.6-1l2.5-5.4C19.2,39.1,18.8,38,17.9,37.6z"/>
	<path fill="#FFFFFF" d="M8,37.6c-0.9-0.4-2,0-2.4,0.9l-2.5,5.4c-0.4,0.9,0,2,0.9,2.4c0.2,0.1,0.5,0.2,0.7,0.2c0.7,0,1.3-0.4,1.6-1
		L8.9,40C9.3,39.1,8.9,38,8,37.6z"/>
	<path fill="#FFFFFF" d="M27.8,37.6c-0.9-0.4-2,0-2.4,0.9l-2.5,5.4c-0.4,0.9,0,2,0.9,2.4c0.2,0.1,0.5,0.2,0.7,0.2
		c0.7,0,1.3-0.4,1.6-1l2.5-5.4C29.1,39.1,28.7,38,27.8,37.6z"/>
</g>
</svg>
