<?xml version="1.0" encoding="utf-8"?>
<!-- Generator: Adobe Illustrator 17.1.0, SVG Export Plug-In . SVG Version: 6.00 Build 0)  -->
<!DOCTYPE svg PUBLIC "-//W3C//DTD SVG 1.1//EN" "http://www.w3.org/Graphics/SVG/1.1/DTD/svg11.dtd">
<svg version="1.1" id="Layer_1" xmlns="http://www.w3.org/2000/svg" xmlns:xlink="http://www.w3.org/1999/xlink" x="0px" y="0px"
	 viewBox="0 0 48 48" enable-background="new 0 0 48 48" xml:space="preserve">
<g>
	<path fill="#FFFFFF" d="M39.7,8c-1.1-2.6-3.6-4.4-6.6-4.4c-0.2,0-0.6,0-1,0c-1.7-1.3-3.5-2-5.5-2c-2.9,0-5.5,1.3-7.2,3.5
		c1.7,0.4,3.3,1.1,4.7,2.2c0.2,0,0.4,0,0.6,0c4.2,0,8,2.3,10,5.9c4.2,0.4,7.8,3.1,9.4,6.7c1.6-1.2,2.7-3.1,2.7-5.2
		C47,11,43.6,7.9,39.7,8z"/>
	<path fill="#FFFFFF" d="M41.8,21C41.8,21,41.8,21,41.8,21c-0.1-0.2-0.2-0.4-0.3-0.5c0,0,0,0,0-0.1c-0.4-0.7-0.8-1.3-1.4-1.9
		c0,0-0.1-0.1-0.1-0.1c-0.1-0.1-0.2-0.2-0.4-0.3c0,0-0.1-0.1-0.1-0.1c-0.2-0.2-0.5-0.4-0.7-0.5c-0.1,0-0.1-0.1-0.2-0.1
		c-0.1-0.1-0.2-0.1-0.3-0.2c-0.1-0.1-0.2-0.1-0.3-0.2c-0.1-0.1-0.2-0.1-0.3-0.2c-0.1-0.1-0.3-0.1-0.4-0.2c-0.1,0-0.2-0.1-0.3-0.1
		c-0.2-0.1-0.5-0.2-0.7-0.2c-0.1,0-0.1,0-0.2-0.1c-0.2-0.1-0.4-0.1-0.6-0.1c-0.1,0-0.2,0-0.3-0.1c-0.2,0-0.4-0.1-0.5-0.1
		c-0.1,0-0.2,0-0.2,0c-0.3,0-0.5,0-0.8,0c-0.2,0-0.4,0-0.6,0c-1.2-3.4-4.5-5.8-8.2-5.8c-0.3,0-0.9,0-1.4,0.1
		c-0.4-0.3-0.7-0.6-1.1-0.8c-0.1-0.1-0.2-0.1-0.2-0.2c-0.4-0.2-0.8-0.5-1.2-0.6c0,0,0,0,0,0c-0.4-0.2-0.8-0.3-1.3-0.5
		c0,0-0.1,0-0.1,0c-1-0.3-2-0.4-3.1-0.4c-5.7,0-10.3,4-11.3,9.7c-2.4,1.6-4,4.2-4,6.7c0,4.4,3.6,8,8,8.1c-0.6,0.7-1.1,1.4-1.2,1.8
		c-0.4,1.3,0.4,2.6,1.7,3c1.3,0.4,2.6-0.4,3-1.7c0.2-0.6,0-1.9-0.3-3.1h6.5c-0.6,0.7-1,1.3-1.2,1.8c-0.4,1.3,0.4,2.6,1.7,3
		c1.3,0.4,2.6-0.4,3-1.7c0.2-0.6,0-1.9-0.3-3h6.4c-0.5,0.6-1,1.3-1.1,1.7c-0.4,1.3,0.4,2.6,1.7,3c1.3,0.4,2.6-0.4,3-1.7
		c0.2-0.6,0-1.8-0.3-3h2.2c4.7,0,8.7-3.7,8.7-8.2C42.4,22.9,42.2,21.9,41.8,21L41.8,21z"/>
	<path fill="#FFFFFF" d="M10,43.3c-0.4,1.3,0.4,2.6,1.7,3c1.3,0.4,2.6-0.4,3-1.7c0.4-1.3-0.9-5.6-1-5.6C13.7,39,10.4,42.1,10,43.3z"
		/>
	<path fill="#FFFFFF" d="M19.7,43.3c-0.4,1.3,0.4,2.6,1.7,3c1.3,0.4,2.6-0.4,3-1.7c0.4-1.3-0.9-5.6-1-5.6C23.3,39,20,42,19.7,43.3z"
		/>
</g>
</svg>
