<?xml version="1.0" encoding="utf-8"?>
<!-- Generator: Adobe Illustrator 17.1.0, SVG Export Plug-In . SVG Version: 6.00 Build 0)  -->
<!DOCTYPE svg PUBLIC "-//W3C//DTD SVG 1.1//EN" "http://www.w3.org/Graphics/SVG/1.1/DTD/svg11.dtd">
<svg version="1.1" id="Layer_1" xmlns="http://www.w3.org/2000/svg" xmlns:xlink="http://www.w3.org/1999/xlink" x="0px" y="0px"
	 viewBox="0 0 48 48" enable-background="new 0 0 48 48" xml:space="preserve">
<g>
	<path fill="#FFFFFF" d="M24,15.5c-4.7,0-8.5,3.8-8.5,8.5c0,4.7,3.8,8.5,8.5,8.5c4.7,0,8.5-3.8,8.5-8.5C32.5,19.3,28.7,15.5,24,15.5
		z M24,28.8c-2.7,0-4.9-2.2-4.9-4.9c0-2.7,2.2-4.9,4.9-4.9c2.7,0,4.9,2.2,4.9,4.9C28.8,26.6,26.7,28.8,24,28.8z"/>
	<path fill="#FFFFFF" d="M44.9,22.2h-8.2c-1,0-1.8,0.8-1.8,1.8c0,1,0.8,1.8,1.8,1.8h8.2c1,0,1.8-0.8,1.8-1.8
		C46.7,23,45.9,22.2,44.9,22.2z"/>
	<path fill="#FFFFFF" d="M13.1,24c0-1-0.8-1.8-1.8-1.8H3.1c-1,0-1.8,0.8-1.8,1.8c0,1,0.8,1.8,1.8,1.8h8.2C12.3,25.8,13.1,25,13.1,24
		z"/>
	<path fill="#FFFFFF" d="M24,13.1c1,0,1.8-0.8,1.8-1.8V3.1c0-1-0.8-1.8-1.8-1.8c-1,0-1.8,0.8-1.8,1.8v8.2C22.2,12.3,23,13.1,24,13.1
		z"/>
	<path fill="#FFFFFF" d="M24,34.9c-1,0-1.8,0.8-1.8,1.8v8.2c0,1,0.8,1.8,1.8,1.8c1,0,1.8-0.8,1.8-1.8v-8.2
		C25.8,35.7,25,34.9,24,34.9z"/>
	<path fill="#FFFFFF" d="M33.3,16.6c0.5,0,0.9-0.2,1.3-0.5l5.8-5.8c0.7-0.7,0.7-1.9,0-2.6c-0.7-0.7-1.9-0.7-2.6,0L32,13.5
		c-0.7,0.7-0.7,1.9,0,2.6C32.3,16.4,32.8,16.6,33.3,16.6z"/>
	<path fill="#FFFFFF" d="M13.5,32l-5.8,5.8c-0.7,0.7-0.7,1.9,0,2.6c0.4,0.4,0.8,0.5,1.3,0.5c0.5,0,0.9-0.2,1.3-0.5l5.8-5.8
		c0.7-0.7,0.7-1.9,0-2.6C15.3,31.3,14.2,31.3,13.5,32z"/>
	<path fill="#FFFFFF" d="M34.5,32c-0.7-0.7-1.9-0.7-2.6,0c-0.7,0.7-0.7,1.9,0,2.6l5.8,5.8c0.4,0.4,0.8,0.5,1.3,0.5
		c0.5,0,0.9-0.2,1.3-0.5c0.7-0.7,0.7-1.9,0-2.6L34.5,32z"/>
	<path fill="#FFFFFF" d="M13.5,16c0.4,0.4,0.8,0.5,1.3,0.5c0.5,0,0.9-0.2,1.3-0.5c0.7-0.7,0.7-1.9,0-2.6l-5.8-5.8
		c-0.7-0.7-1.9-0.7-2.6,0c-0.7,0.7-0.7,1.9,0,2.6L13.5,16z"/>
</g>
</svg>
