<?xml version="1.0" encoding="utf-8"?>
<!-- Generator: Adobe Illustrator 17.1.0, SVG Export Plug-In . SVG Version: 6.00 Build 0)  -->
<!DOCTYPE svg PUBLIC "-//W3C//DTD SVG 1.1//EN" "http://www.w3.org/Graphics/SVG/1.1/DTD/svg11.dtd">
<svg version="1.1" id="Layer_1" xmlns="http://www.w3.org/2000/svg" xmlns:xlink="http://www.w3.org/1999/xlink" x="0px" y="0px"
	 viewBox="0 0 48 48" enable-background="new 0 0 48 48" xml:space="preserve">
<path fill="#FFFFFF" d="M37,19.8c-0.3,0-0.6,0-0.8,0c-1.2-3.7-4.7-6.3-8.8-6.3c-0.4,0-1,0-1.6,0.1c-2.3-1.9-4.8-2.8-7.6-2.8
	c-6.1,0-11.1,4.3-12.1,10.5c-2.6,1.7-4.4,4.5-4.4,7.2c0,4.8,4,8.7,8.8,8.7H37c5,0,9.3-4,9.3-8.7C46.3,23.8,42,19.8,37,19.8z
	 M37,33.6H10.6c-3.3,0-5.3-2.6-5.3-5.1c0-1.7,1.3-3.5,3.2-4.5l0.9-0.4l0.1-1c0.5-4.7,4.2-8.2,8.7-8.2c2.2,0,4,0.8,5.8,2.5l0.7,0.6
	l0.9-0.2c0.3-0.1,1.2-0.2,1.7-0.2c2.9,0,5.3,2.1,5.6,5l0.2,2l2-0.5c0.6-0.1,1.1-0.2,1.7-0.2c3,0,5.7,2.4,5.7,5.1
	C42.7,31.2,40,33.6,37,33.6z"/>
</svg>
