<?xml version="1.0" encoding="utf-8"?>
<!-- Generator: Adobe Illustrator 17.1.0, SVG Export Plug-In . SVG Version: 6.00 Build 0)  -->
<!DOCTYPE svg PUBLIC "-//W3C//DTD SVG 1.1//EN" "http://www.w3.org/Graphics/SVG/1.1/DTD/svg11.dtd">
<svg version="1.1" id="Layer_1" xmlns="http://www.w3.org/2000/svg" xmlns:xlink="http://www.w3.org/1999/xlink" x="0px" y="0px"
	 viewBox="0 0 48 48" enable-background="new 0 0 48 48" xml:space="preserve">
<path fill="#FFFFFF" d="M46.9,20.1c0-3.9-3.5-7.1-7.4-7c-1.1-2.8-3.7-4.7-6.6-4.7c-0.2,0-0.6,0-1,0.1c-1.7-1.4-3.5-2.1-5.6-2.1
	c-4.6,0-8.3,3.3-9.2,8c-0.9,0.6-1.7,1.5-2.2,2.4c-5,0.5-9,4.4-9.9,9.7c-2.4,1.6-3.9,4.2-3.9,6.8c0,4.5,3.6,8.2,8.1,8.2h23.5
	c4.6,0,8.5-3.7,8.5-8.2c0-2.5-1.2-4.7-3-6.2h1.6C43.6,27.1,46.9,23.9,46.9,20.1z M20.4,16.8l0.1-1c0.3-3.3,2.7-5.6,5.7-5.6
	c1.4,0,2.6,0.5,3.8,1.7l0.7,0.7l0.9-0.2c0.2,0,0.8-0.1,1.1-0.1c1.8,0,3.3,1.4,3.5,3.3l0.2,2.1l2-0.5c0.4-0.1,0.7-0.1,1.1-0.1
	c2.1,0,3.6,1.7,3.6,3.3c0,1.5-1.5,3.3-3.6,3.3h-8.5c-1.5-2.5-4.2-4.1-7.1-4.1c-0.3,0-0.8,0-1.4,0.1c-1.1-0.9-2.2-1.6-3.4-2
	c0.1,0,0.1-0.1,0.2-0.1L20.4,16.8z M32.7,37.8H9.2c-2.8,0-4.5-2.3-4.5-4.5c0-1.5,1.1-3.1,2.8-4l0.9-0.5l0.1-1
	c0.4-4.3,3.6-7.4,7.5-7.4c1.9,0,3.5,0.7,5,2.2l0.7,0.7l0.9-0.2c0.3-0.1,1-0.1,1.5-0.1c2.5,0,4.5,1.9,4.8,4.4l0.2,2.1l2-0.5
	c0.5-0.1,1-0.2,1.5-0.2c2.8,0,4.9,2.4,4.9,4.5C37.6,35.4,35.5,37.8,32.7,37.8z"/>
</svg>
