<?xml version="1.0" encoding="utf-8"?>
<!-- Generator: Adobe Illustrator 17.1.0, SVG Export Plug-In . SVG Version: 6.00 Build 0)  -->
<!DOCTYPE svg PUBLIC "-//W3C//DTD SVG 1.1//EN" "http://www.w3.org/Graphics/SVG/1.1/DTD/svg11.dtd">
<svg version="1.1" id="Layer_1" xmlns="http://www.w3.org/2000/svg" xmlns:xlink="http://www.w3.org/1999/xlink" x="0px" y="0px"
	 viewBox="0 0 542 103" enable-background="new 0 0 542 103" xml:space="preserve">
<g>
	<g>
		<circle fill="#FF382C" cx="64.2" cy="51.5" r="42.5"/>
		<g>
			<polygon fill="#FFFFFF" points="56.8,36.9 53.7,36.9 50.7,36.9 47.6,36.9 44.6,36.9 41.4,36.9 41.4,38.9 41.4,42 41.4,45.2 
				44.6,45.2 47.6,45.2 50.7,45.2 53.6,45.2 53.6,48.1 53.6,51.1 53.6,54.2 53.6,57.2 53.6,60.3 53.6,63.3 53.6,65.9 56.8,65.9 
				59.8,65.9 62.6,65.9 62.6,63.3 62.6,60.3 62.6,57.2 62.6,54.2 62.6,51.1 62.6,48.1 62.6,45 62.6,42 62.6,38.9 62.6,36.9 
				59.8,36.9 			"/>
			<polygon fill="#FFFFFF" points="84.2,57.5 81.2,57.5 78.1,57.5 74.9,57.5 74.9,54.2 74.9,51.1 74.9,48.1 74.9,45 74.9,42 
				74.9,38.9 74.9,36.9 72,36.9 69,36.9 65.2,36.9 65.2,38.9 65.2,42 65.2,45 65.2,48.1 65.2,51.1 65.2,54.2 65.2,57.2 65.2,60.3 
				65.2,63.3 65.2,65.9 69,65.9 72,65.9 75.1,65.9 78.1,65.9 81.2,65.9 84.2,65.9 86.5,65.9 86.5,63.3 86.5,60.3 86.5,57.5 			"/>
		</g>
	</g>
	<g>
		<path fill="#3B3434" d="M160.7,38v26.5h-8.3V44.6h-10.8V38H160.7z"/>
		<path fill="#3B3434" d="M191.9,64.5h-8.3V38h11.7c3.7,0,6.5,0.8,8.4,2.3c1.9,1.6,2.9,3.7,2.9,6.4c0,1.7-0.4,3.2-1.3,4.6
			c-0.8,1.4-2.1,2.4-3.9,3.1l6.6,10.2h-9.3l-4.7-8.1l-2.2,0.2V64.5z M194.6,50.7c1.3-0.1,2.1-0.5,2.6-1c0.6-0.5,0.8-1.3,0.8-2.4
			c0-1-0.3-1.6-1-2.1c-0.6-0.5-1.7-0.6-3.3-0.6h-1.9v6.1L194.6,50.7z"/>
		<path fill="#3B3434" d="M254.3,58.7c-0.6,1.5-1.4,2.7-2.4,3.7c-1.1,1-2.3,1.7-3.9,2.1c-1.5,0.5-3.2,0.7-5,0.7
			c-1.8,0-3.4-0.2-4.9-0.6c-1.5-0.4-2.8-1-3.9-1.9c-1.1-0.9-1.8-2-2.4-3.4c-0.6-1.4-0.8-3.1-0.8-5.1V38.1h8.3v15.1
			c0,1.8,0.2,3.1,0.9,4c0.6,0.8,1.6,1.3,3.1,1.3c1.4,0,2.2-0.4,2.8-1.1c0.6-0.7,0.7-2,0.7-3.9V38.1h8.3v15.4
			C255,55.5,254.9,57.3,254.3,58.7z"/>
		<path fill="#3B3434" d="M293.7,44.6v19.9h-8.3V44.6H278V38h24v6.6H293.7z"/>
		<path fill="#3B3434" d="M341.5,64.5v-9.9h-8.3v9.9H325V38h8.3V48h8.3V38h8.3v26.5H341.5z"/>
		<path fill="#3B3434" d="M373,64.5V38h3.3v23.2h13.2v3.3H373z"/>
		<path fill="#3B3434" d="M437,64.5h-3.7l-2.5-6.6h-11.5l-2.5,6.6H413L423,38h4.1L437,64.5z M425,42l-4.6,12.6h9.1L425,42z"/>
		<path fill="#3B3434" d="M473.8,50.9c1.8,0.5,3.1,1.2,4,2.3c0.9,1.1,1.4,2.4,1.4,3.9c0,1.1-0.2,2.2-0.6,3.1c-0.4,0.9-1,1.7-1.8,2.4
			c-0.8,0.7-1.8,1.1-3.1,1.5c-1.2,0.4-2.7,0.5-4.4,0.5H460V38h9.1c3.2,0,5.6,0.6,7,1.9c1.5,1.3,2.2,3,2.2,5.1
			C478.4,47.8,476.9,49.7,473.8,50.9z M474.8,45.3c0-1.3-0.5-2.2-1.4-2.9c-0.9-0.7-2.2-1-4-1h-5.3v8.3h4.7c1.9,0,3.4-0.4,4.4-1.2
			C474.2,47.7,474.8,46.6,474.8,45.3z M475.6,57c0-1.5-0.6-2.6-1.8-3.2c-1.2-0.6-2.8-0.9-4.6-0.9h-5v8.3h5.6
			C473.6,61.2,475.6,59.8,475.6,57z"/>
		<path fill="#3B3434" d="M511,61.9c1.7,0,3.1-0.4,4.2-1.2c1.1-0.8,1.6-1.9,1.6-3.2c0-1.4-0.5-2.4-1.5-3c-1-0.7-2.6-1.3-4.8-1.8
			c-0.9-0.3-1.9-0.6-2.8-0.9c-0.9-0.4-1.8-0.8-2.6-1.4c-0.8-0.6-1.4-1.3-1.8-2.2c-0.5-0.9-0.7-2-0.7-3.2c0-1.1,0.2-2.1,0.6-3
			c0.4-0.9,1-1.7,1.8-2.4c0.8-0.7,1.7-1.2,2.8-1.5c1.1-0.4,2.3-0.5,3.6-0.5c3.1,0,5.9,0.8,8.4,2.3l-1.3,3.1c-1-0.7-2.2-1.2-3.4-1.6
			c-1.3-0.4-2.5-0.6-3.7-0.6c-1.9,0-3.3,0.4-4.1,1.2c-0.8,0.8-1.3,1.7-1.3,2.8c0,1.3,0.5,2.3,1.7,3c1.1,0.6,2.7,1.2,4.8,1.8
			c1,0.3,1.9,0.6,2.9,1c0.9,0.4,1.8,0.9,2.5,1.5c0.7,0.6,1.3,1.4,1.8,2.3c0.4,0.9,0.7,2,0.7,3.2c0,1.1-0.2,2.2-0.7,3.2
			c-0.5,1-1.1,1.8-1.9,2.5c-0.8,0.7-1.8,1.3-3,1.7c-1.2,0.4-2.4,0.6-3.8,0.6c-1.6,0-3.1-0.2-4.7-0.6c-1.5-0.4-3-1.1-4.2-1.9l1.2-3.3
			c1.1,0.7,2.3,1.4,3.6,1.8C508,61.7,509.4,61.9,511,61.9z"/>
	</g>
</g>
</svg>
