<?xml version="1.0" encoding="utf-8"?>
<!-- Generator: Adobe Illustrator 17.1.0, SVG Export Plug-In . SVG Version: 6.00 Build 0)  -->
<!DOCTYPE svg PUBLIC "-//W3C//DTD SVG 1.1//EN" "http://www.w3.org/Graphics/SVG/1.1/DTD/svg11.dtd">
<svg version="1.1" id="Layer_1" xmlns="http://www.w3.org/2000/svg" xmlns:xlink="http://www.w3.org/1999/xlink" x="0px" y="0px"
	 viewBox="0 0 48 48" enable-background="new 0 0 48 48" xml:space="preserve">
<g>
	<path fill="#FFFFFF" d="M24.7,30.5c0.3,0,0.6,0.1,0.9,0.1c4.1,0,7.6-3.1,8.1-7.2c0.3-2.2-0.4-4.3-1.7-6c-1.4-1.7-3.3-2.8-5.5-3
		C22,13.7,18,17,17.5,21.4C17,25.9,20.2,30,24.7,30.5z M21.2,21.8c0.3-2.2,2.2-3.9,4.4-3.9c0.2,0,0.3,0,0.5,0c1.2,0.1,2.2,0.7,3,1.7
		c0.7,0.9,1.1,2.1,0.9,3.3c-0.3,2.4-2.5,4.2-4.9,3.9C22.7,26.5,20.9,24.3,21.2,21.8z"/>
	<path fill="#FFFFFF" d="M45.5,22.8l-7.7-0.9c-1-0.1-1.9,0.6-2.1,1.6c-0.1,1,0.6,1.9,1.6,2.1l7.7,0.9c0.1,0,0.1,0,0.2,0
		c0.9,0,1.7-0.7,1.8-1.6C47.3,23.9,46.6,22.9,45.5,22.8z"/>
	<path fill="#FFFFFF" d="M5.7,22l7.7,0.9c0.1,0,0.1,0,0.2,0c0.9,0,1.7-0.7,1.8-1.6c0.1-1-0.6-1.9-1.6-2.1l-7.7-0.9
		c-1-0.1-1.9,0.6-2.1,1.6C4,20.9,4.7,21.8,5.7,22z"/>
	<path fill="#FFFFFF" d="M26.8,12.3c0.1,0,0.1,0,0.2,0c0.9,0,1.7-0.7,1.8-1.6l0.9-7.7c0.1-1-0.6-1.9-1.6-2.1c-1-0.1-1.9,0.6-2.1,1.6
		l-0.9,7.7C25,11.2,25.8,12.2,26.8,12.3z"/>
	<path fill="#FFFFFF" d="M35.3,16.6c0.4,0,0.8-0.1,1.2-0.4l6.1-4.8c0.8-0.6,0.9-1.8,0.3-2.6c-0.6-0.8-1.8-0.9-2.6-0.3l-6.1,4.8
		c-0.8,0.6-0.9,1.8-0.3,2.6C34.2,16.3,34.8,16.6,35.3,16.6z"/>
	<path fill="#FFFFFF" d="M34.8,30.9c-0.6-0.8-1.8-0.9-2.6-0.3c-0.8,0.6-0.9,1.8-0.3,2.6l4.8,6.1c0.4,0.5,0.9,0.7,1.5,0.7
		c0.4,0,0.8-0.1,1.2-0.4c0.8-0.6,0.9-1.8,0.3-2.6L34.8,30.9z"/>
	<path fill="#FFFFFF" d="M16.5,13.8c0.4,0.5,0.9,0.7,1.5,0.7c0.4,0,0.8-0.1,1.2-0.4c0.8-0.6,0.9-1.8,0.3-2.6l-4.8-6.1
		c-0.6-0.8-1.8-0.9-2.6-0.3c-0.8,0.6-0.9,1.8-0.3,2.6L16.5,13.8z"/>
	<path fill="#FFFFFF" d="M23.6,34.8C23.6,34.8,23.6,34.8,23.6,34.8c-1-2.3-3.3-3.9-6-3.9c-0.2,0-0.5,0-0.8,0c-1.5-1.2-3.1-1.7-5-1.7
		c-4.1,0-7.4,2.8-8.2,6.8c-1.7,1.2-2.8,3.1-2.8,5c0,3.4,2.8,6.2,6.3,6.2h16.5c3.5,0,6.5-2.8,6.5-6.2C30.1,37.7,27.1,34.8,23.6,34.8z
		 M23.6,43.4H7.1c-1.6,0-2.5-1.3-2.5-2.4c0-0.8,0.7-1.7,1.6-2.2l0.9-0.5l0.1-1c0.3-2.6,2.2-4.5,4.7-4.5c1.2,0,2.1,0.4,3.1,1.3
		l0.7,0.7l1-0.2c0.1,0,0.6-0.1,0.9-0.1c1.4,0,2.6,1.1,2.8,2.5l0.3,2.1l2.1-0.5c0.3-0.1,0.6-0.1,0.9-0.1c1.6,0,2.8,1.3,2.8,2.4
		C26.4,42.2,25.2,43.4,23.6,43.4z"/>
</g>
</svg>
