<?xml version="1.0" encoding="utf-8"?>
<!-- Generator: Adobe Illustrator 17.1.0, SVG Export Plug-In . SVG Version: 6.00 Build 0)  -->
<!DOCTYPE svg PUBLIC "-//W3C//DTD SVG 1.1//EN" "http://www.w3.org/Graphics/SVG/1.1/DTD/svg11.dtd">
<svg version="1.1" id="Layer_1" xmlns="http://www.w3.org/2000/svg" xmlns:xlink="http://www.w3.org/1999/xlink" x="0px" y="0px"
	 viewBox="0 0 48 48" enable-background="new 0 0 48 48" xml:space="preserve">
<g>
	<path fill="#FFFFFF" d="M39.2,21c-0.1,0.9,0.6,1.7,1.4,1.7l3.7,0.4c0.9,0.1,1.7-0.6,1.7-1.4c0.1-0.9-0.6-1.7-1.4-1.7L41,19.6
		C40.1,19.5,39.3,20.1,39.2,21z"/>
	<path fill="#FFFFFF" d="M30.9,10.8c0.9,0.1,1.7-0.6,1.7-1.4L33,5.7C33,4.8,32.4,4,31.5,3.9c-0.9-0.1-1.7,0.6-1.7,1.4L29.4,9
		C29.3,9.9,30,10.7,30.9,10.8z"/>
	<path fill="#FFFFFF" d="M21.8,12.6c0.3,0.3,0.7,0.5,1.1,0.6c0.4,0,0.8-0.1,1.2-0.4c0.7-0.6,0.8-1.6,0.2-2.2l-2.3-2.8
		c-0.6-0.7-1.6-0.8-2.2-0.2c-0.7,0.6-0.8,1.6-0.2,2.2L21.8,12.6z"/>
	<path fill="#FFFFFF" d="M38.2,14.7c0.4,0,0.8-0.1,1.2-0.4l2.8-2.3c0.7-0.6,0.8-1.6,0.2-2.2c-0.6-0.7-1.6-0.8-2.2-0.2l-2.8,2.3
		c-0.7,0.6-0.8,1.6-0.2,2.2C37.4,14.5,37.8,14.7,38.2,14.7z"/>
	<path fill="#FFFFFF" d="M37.4,26.1c-0.3,0-0.6,0-0.8,0c-0.3-0.9-0.8-1.8-1.3-2.5c0.6-0.8,0.9-1.8,1.1-2.9c0.3-3.5-2.2-6.6-5.7-6.9
		c-3.1-0.3-5.9,1.7-6.7,4.6c-1.8-1-3.8-1.6-5.9-1.6c-6.3,0-11.4,4.5-12.5,10.8C2.7,29.4,1,32.3,1,35.1c0,4.9,4.1,9,9.2,9h27.3
		c5.2,0,9.6-4.1,9.6-9C47,30.2,42.6,26.1,37.4,26.1z M30.3,17c1.7,0.2,3,1.7,2.8,3.4c0,0.3-0.1,0.6-0.3,0.9
		c-1.5-1.1-3.4-1.7-5.4-1.7c-0.2,0-0.4,0-0.6,0C27.1,18,28.6,16.8,30.3,17z M37.4,40.3H10.1c-3.4,0-5.4-2.7-5.4-5.2
		c0-1.7,1.4-3.6,3.3-4.6L8.9,30L9,29c0.5-4.9,4.3-8.5,9-8.5c2.3,0,4.1,0.8,6,2.5l0.7,0.7l1-0.2c0.4-0.1,1.2-0.2,1.8-0.2
		c3,0,5.5,2.2,5.8,5.2l0.3,2.1l2.1-0.5c0.6-0.2,1.2-0.2,1.8-0.2c3.1,0,5.9,2.5,5.9,5.2C43.3,37.9,40.6,40.3,37.4,40.3z"/>
</g>
</svg>
