<?xml version="1.0" encoding="utf-8"?>
<!-- Generator: Adobe Illustrator 17.1.0, SVG Export Plug-In . SVG Version: 6.00 Build 0)  -->
<!DOCTYPE svg PUBLIC "-//W3C//DTD SVG 1.1//EN" "http://www.w3.org/Graphics/SVG/1.1/DTD/svg11.dtd">
<svg version="1.1" id="Layer_1" xmlns="http://www.w3.org/2000/svg" xmlns:xlink="http://www.w3.org/1999/xlink" x="0px" y="0px"
	 viewBox="0 0 48 48" enable-background="new 0 0 48 48" xml:space="preserve">
<g>
	<path fill="#FFFFFF" d="M33.1,30.9c-0.2,0-0.4,0-0.6,0c-1.2-3.4-4.4-5.7-8.2-5.7c-0.3,0-0.9,0-1.4,0.1c-2.1-1.7-4.4-2.6-7-2.6
		c-5.6,0-10.2,4-11.2,9.6c-2.4,1.6-4,4.2-4,6.7c0,4.5,3.7,8.1,8.3,8.1h24.1c4.7,0,8.7-3.7,8.7-8.1C41.8,34.6,37.8,30.9,33.1,30.9z
		 M33.1,43.4H9c-2.8,0-4.6-2.3-4.6-4.4c0-1.4,1.2-3,2.8-3.9l0.9-0.5l0.1-1c0.4-4.2,3.7-7.2,7.7-7.2c1.9,0,3.5,0.7,5.1,2.2l0.7,0.7
		l1-0.2c0.3-0.1,1-0.1,1.5-0.1c2.5,0,4.6,1.9,4.9,4.3l0.3,2.1l2.1-0.5c0.5-0.1,1-0.2,1.5-0.2c2.8,0,4.9,2.3,4.9,4.4
		C38,41.1,35.9,43.4,33.1,43.4z"/>
	<path fill="#FFFFFF" d="M29.7,24.9c3.7,0,6.7-3,6.7-6.7c0-3.7-3-6.7-6.7-6.7c-3.7,0-6.7,3-6.7,6.7C23,21.9,26,24.9,29.7,24.9z
		 M29.7,15.2c1.7,0,3,1.3,3,3s-1.3,3-3,3c-1.7,0-3-1.3-3-3S28.1,15.2,29.7,15.2z"/>
	<path fill="#FFFFFF" d="M29.7,8.6c1,0,1.9-0.8,1.9-1.9v-4c0-1-0.8-1.9-1.9-1.9c-1,0-1.9,0.8-1.9,1.9v4C27.9,7.8,28.7,8.6,29.7,8.6z
		"/>
	<path fill="#FFFFFF" d="M45.4,16.5h-4c-1,0-1.9,0.8-1.9,1.9c0,1,0.8,1.9,1.9,1.9h4c1,0,1.9-0.8,1.9-1.9
		C47.3,17.4,46.4,16.5,45.4,16.5z"/>
	<path fill="#FFFFFF" d="M14.1,20.2h4c1,0,1.9-0.8,1.9-1.9c0-1-0.8-1.9-1.9-1.9h-4c-1,0-1.9,0.8-1.9,1.9
		C12.2,19.4,13,20.2,14.1,20.2z"/>
	<path fill="#FFFFFF" d="M38,12c0.5,0,1-0.2,1.3-0.5l2.8-2.8c0.7-0.7,0.7-1.9,0-2.6c-0.7-0.7-1.9-0.7-2.6,0l-2.8,2.8
		c-0.7,0.7-0.7,1.9,0,2.6C37,11.8,37.5,12,38,12z"/>
	<path fill="#FFFFFF" d="M20.2,11.5c0.4,0.4,0.8,0.5,1.3,0.5c0.5,0,1-0.2,1.3-0.5c0.7-0.7,0.7-1.9,0-2.6L20,6
		c-0.7-0.7-1.9-0.7-2.6,0c-0.7,0.7-0.7,1.9,0,2.6L20.2,11.5z"/>
	<path fill="#FFFFFF" d="M39.3,25.3c-0.7-0.7-1.9-0.7-2.6,0c-0.7,0.7-0.7,1.9,0,2.6l2.8,2.8c0.4,0.4,0.8,0.5,1.3,0.5s1-0.2,1.3-0.5
		c0.7-0.7,0.7-1.9,0-2.6L39.3,25.3z"/>
</g>
</svg>
