<?xml version="1.0" encoding="utf-8"?>
<!-- Generator: Adobe Illustrator 17.1.0, SVG Export Plug-In . SVG Version: 6.00 Build 0)  -->
<!DOCTYPE svg PUBLIC "-//W3C//DTD SVG 1.1//EN" "http://www.w3.org/Graphics/SVG/1.1/DTD/svg11.dtd">
<svg version="1.1" id="Layer_1" xmlns="http://www.w3.org/2000/svg" xmlns:xlink="http://www.w3.org/1999/xlink" x="0px" y="0px"
	 viewBox="0 0 48 48" enable-background="new 0 0 48 48" xml:space="preserve">
<g>
	<path fill="#FFFFFF" d="M19.9,5.2C17.4,1,17.3,1,16.5,1c-0.9,0-0.9,0-3.4,4.2c-0.9,1.6-2.8,4.7-4.8,8.4c-4.6,8.7-7,14.8-7,18.2
		C1.2,40.2,8.1,47,16.5,47c8.4,0,15.2-6.8,15.2-15.2c0-3.4-2.4-9.6-7-18.2C22.7,9.9,20.8,6.7,19.9,5.2z"/>
	<path fill="#FFFFFF" d="M43.6,6.9C40.5,1,40.1,1,39.4,1c-0.8,0-1.1,0-4.3,5.9c-3.1,5.9-3.1,7.7-3.1,8.3c0,4.1,3.3,7.4,7.4,7.4
		c4.1,0,7.4-3.3,7.4-7.4C46.8,14.6,46.8,12.7,43.6,6.9z"/>
</g>
</svg>
