<?xml version="1.0" encoding="utf-8"?>
<!-- Generator: Adobe Illustrator 17.1.0, SVG Export Plug-In . SVG Version: 6.00 Build 0)  -->
<!DOCTYPE svg PUBLIC "-//W3C//DTD SVG 1.1//EN" "http://www.w3.org/Graphics/SVG/1.1/DTD/svg11.dtd">
<svg version="1.1" id="Layer_1" xmlns="http://www.w3.org/2000/svg" xmlns:xlink="http://www.w3.org/1999/xlink" x="0px" y="0px"
	 viewBox="0 0 48 48" enable-background="new 0 0 48 48" xml:space="preserve">
<g>
	<path fill="#FFFFFF" d="M47,10.7c-0.1-0.5-0.7-0.9-1.2-0.7l-3.2,0.9l-1.9-1.3l1.8-1.1l3.3,0.9c0.1,0,0.2,0,0.3,0
		c0.4,0,0.9-0.3,1-0.7c0.1-0.5-0.2-1.1-0.7-1.2L44.8,7l1.6-1c0.5-0.3,0.6-0.9,0.3-1.4c-0.3-0.5-0.9-0.6-1.4-0.3l-0.9,0.6l0.2-0.6
		c0.1-0.5-0.2-1.1-0.7-1.2c-0.5-0.1-1.1,0.2-1.2,0.7l-0.7,2.8l-2.1,1.4V5.6L42,3.4c0.4-0.4,0.4-1,0-1.4c-0.4-0.4-1-0.4-1.4,0
		l-0.8,0.8V1.7c0-0.6-0.5-1-1-1c-0.6,0-1,0.5-1,1v1.1l-0.8-0.8c-0.4-0.4-1-0.4-1.4,0c-0.4,0.4-0.4,1,0,1.4l2.2,2.2v2l-2.2-1.5
		l-0.7-2.4c-0.1-0.5-0.7-0.9-1.2-0.7c-0.5,0.1-0.9,0.7-0.7,1.2L33,4.4l-0.8-0.5c-0.5-0.3-1.1-0.2-1.4,0.3c-0.3,0.5-0.2,1.1,0.3,1.4
		L33,6.9l-1.9,0.5c-0.5,0.1-0.9,0.7-0.7,1.2c0.1,0.5,0.5,0.7,1,0.7c0.1,0,0.2,0,0.3,0l3.5-0.9c0,0,0.1,0,0.1-0.1L37,9.6l-2.1,1.3
		L31.6,10c-0.5-0.1-1.1,0.2-1.2,0.7c-0.1,0.5,0.2,1.1,0.7,1.2l1.5,0.4l-1.5,1c-0.5,0.3-0.6,0.9-0.3,1.4c0.2,0.3,0.5,0.5,0.8,0.5
		c0.2,0,0.4-0.1,0.5-0.2l0.9-0.6l-0.2,0.7c-0.1,0.5,0.2,1.1,0.7,1.2c0.1,0,0.2,0,0.3,0c0.4,0,0.9-0.3,1-0.7l0.8-2.8l2.1-1.3v2.2
		L35.5,16c-0.4,0.4-0.4,1,0,1.4c0.2,0.2,0.5,0.3,0.7,0.3c0.3,0,0.5-0.1,0.7-0.3l0.8-0.8v1c0,0.6,0.5,1,1,1c0.6,0,1-0.5,1-1v-1
		l0.8,0.8c0.4,0.4,1,0.4,1.4,0c0.4-0.4,0.4-1,0-1.4l-2.2-2.2v-2.4l2.1,1.4l0.8,2.9c0.1,0.4,0.5,0.7,1,0.7c0.1,0,0.2,0,0.3,0
		c0.5-0.1,0.9-0.7,0.7-1.2l-0.2-0.7l0.9,0.6c0.2,0.1,0.4,0.2,0.6,0.2c0.3,0,0.6-0.2,0.8-0.4c0.3-0.5,0.2-1.1-0.3-1.4l-1.5-1l1.5-0.4
		C46.9,11.8,47.2,11.3,47,10.7z"/>
	<path fill="#FFFFFF" d="M30.7,29.4c0.2,0,0.3,0.1,0.5,0.1c0.9,0,1.6-0.6,1.9-1.4c0.3-1-0.3-2.1-1.4-2.4l-3-0.8l3-1.9
		c0.9-0.6,1.2-1.8,0.6-2.7c-0.6-0.9-1.8-1.2-2.7-0.6l-1.7,1.1l0.3-1.2c0.3-1-0.3-2.1-1.4-2.4c-1-0.3-2.1,0.3-2.4,1.4L23,23.9l-4,2.6
		v-4.3l4.3-4.3c0.8-0.8,0.8-2,0-2.7c-0.8-0.8-2-0.8-2.7,0L19,16.7v-2.1c0-1.1-0.9-1.9-1.9-1.9c-1.1,0-1.9,0.9-1.9,1.9v2.1l-1.6-1.6
		c-0.8-0.8-2-0.8-2.7,0c-0.8,0.8-0.8,2,0,2.7l4.3,4.3V26l-4.2-2.8l-1.3-4.7c-0.3-1-1.3-1.7-2.4-1.4c-1,0.3-1.6,1.3-1.4,2.4L6,20
		l-1.5-1c-0.9-0.6-2.1-0.4-2.7,0.5c-0.6,0.9-0.4,2.1,0.5,2.7L6,24.7l-3.7,1C1.3,25.9,0.7,27,1,28c0.2,0.9,1,1.4,1.9,1.4
		c0.2,0,0.3,0,0.5-0.1l6.7-1.8c0.1,0,0.2-0.1,0.3-0.1l3.5,2.3l-4,2.6l-6.3-1.7c-1-0.3-2.1,0.3-2.4,1.4c-0.3,1,0.3,2.1,1.4,2.4
		l2.9,0.8l-2.9,1.9c-0.9,0.6-1.2,1.8-0.6,2.7c0.4,0.6,1,0.9,1.6,0.9c0.4,0,0.7-0.1,1-0.3l1.7-1.1l-0.3,1.3c-0.3,1,0.3,2.1,1.4,2.4
		C7.4,43,7.6,43,7.8,43c0.9,0,1.6-0.6,1.9-1.4l1.4-5.4l4-2.6v4.3l-4.3,4.3c-0.8,0.8-0.8,2,0,2.7c0.4,0.4,0.9,0.6,1.4,0.6
		c0.5,0,1-0.2,1.4-0.6l1.6-1.6v2c0,1.1,0.9,1.9,1.9,1.9c1.1,0,1.9-0.9,1.9-1.9v-2l1.6,1.6c0.8,0.8,2,0.8,2.7,0c0.8-0.8,0.8-2,0-2.7
		L19,37.9v-4.6l4,2.7l1.5,5.6c0.2,0.9,1,1.4,1.9,1.4c0.2,0,0.3,0,0.5-0.1c1-0.3,1.6-1.3,1.4-2.4l-0.4-1.3l1.7,1.1
		c0.3,0.2,0.7,0.3,1.1,0.3c0.6,0,1.2-0.3,1.6-0.9c0.6-0.9,0.4-2.1-0.5-2.7l-2.9-1.9l2.9-0.8c1-0.3,1.6-1.3,1.4-2.4
		c-0.3-1-1.3-1.7-2.4-1.4l-6.1,1.6l-3.7-2.5l3.4-2.2L30.7,29.4z"/>
</g>
</svg>
