<svg xmlns="http://www.w3.org/2000/svg" viewBox="0 0 48 48" enable-background="new 0 0 48 48"><g fill="#fff"><path d="M39.7 8c-1.1-2.6-3.6-4.4-6.6-4.4h-1c-1.7-1.3-3.5-2-5.5-2-2.9 0-5.5 1.3-7.2 3.5 1.7.4 3.3 1.1 4.7 2.2h.6c4.2 0 8 2.3 10 5.9 4.2.4 7.8 3.1 9.4 6.7 1.6-1.2 2.7-3.1 2.7-5.2.2-3.7-3.2-6.8-7.1-6.7zM41.8 21c-.1-.2-.2-.4-.3-.5v-.1c-.4-.7-.8-1.3-1.4-1.9l-.1-.1c-.1-.1-.2-.2-.4-.3l-.1-.1c-.2-.2-.5-.4-.7-.5l-.2-.1-.3-.2-.3-.2-.3-.2-.4-.2-.3-.1c-.2-.1-.5-.2-.7-.2-.1 0-.1 0-.2-.1-.2-.1-.4-.1-.6-.1-.1 0-.2 0-.3-.1-.2 0-.4-.1-.5-.1h-1.6c-1.2-3.4-4.5-5.8-8.2-5.8-.3 0-.9 0-1.4.1-.4-.3-.7-.6-1.1-.8-.1-.1-.2-.1-.2-.2-.4-.2-.8-.5-1.2-.6-.4-.2-.8-.3-1.3-.5h-.1c-1-.3-2-.4-3.1-.4-5.7 0-10.3 4-11.3 9.7-2.4 1.6-4 4.2-4 6.7 0 4.4 3.6 8 8 8.1-.6.7-1.1 1.4-1.2 1.8-.4 1.3.4 2.6 1.7 3 1.3.4 2.6-.4 3-1.7.2-.6 0-1.9-.3-3.1h6.5c-.6.7-1 1.3-1.2 1.8-.4 1.3.4 2.6 1.7 3 1.3.4 2.6-.4 3-1.7.2-.6 0-1.9-.3-3h6.4c-.5.6-1 1.3-1.1 1.7-.4 1.3.4 2.6 1.7 3 1.3.4 2.6-.4 3-1.7.2-.6 0-1.8-.3-3h2.2c4.7 0 8.7-3.7 8.7-8.2-.3-1.2-.5-2.2-.9-3.1zM10 43.3c-.4 1.3.4 2.6 1.7 3 1.3.4 2.6-.4 3-1.7.4-1.3-.9-5.6-1-5.6 0 0-3.3 3.1-3.7 4.3zM19.7 43.3c-.4 1.3.4 2.6 1.7 3 1.3.4 2.6-.4 3-1.7.4-1.3-.9-5.6-1-5.6-.1 0-3.4 3-3.7 4.3z"/></g></svg>