<svg xmlns="http://www.w3.org/2000/svg" viewBox="0 0 48 48" enable-background="new 0 0 48 48"><g fill="#fff"><path d="M24 15.5c-4.7 0-8.5 3.8-8.5 8.5s3.8 8.5 8.5 8.5 8.5-3.8 8.5-8.5-3.8-8.5-8.5-8.5zm0 13.3c-2.7 0-4.9-2.2-4.9-4.9s2.2-4.9 4.9-4.9 4.9 2.2 4.9 4.9c-.1 2.7-2.2 4.9-4.9 4.9zM44.9 22.2h-8.2c-1 0-1.8.8-1.8 1.8s.8 1.8 1.8 1.8h8.2c1 0 1.8-.8 1.8-1.8s-.8-1.8-1.8-1.8zM13.1 24c0-1-.8-1.8-1.8-1.8h-8.2c-1 0-1.8.8-1.8 1.8s.8 1.8 1.8 1.8h8.2c1 0 1.8-.8 1.8-1.8zM24 13.1c1 0 1.8-.8 1.8-1.8v-8.2c0-1-.8-1.8-1.8-1.8s-1.8.8-1.8 1.8v8.2c0 1 .8 1.8 1.8 1.8zM24 34.9c-1 0-1.8.8-1.8 1.8v8.2c0 1 .8 1.8 1.8 1.8s1.8-.8 1.8-1.8v-8.2c0-1-.8-1.8-1.8-1.8zM33.3 16.6c.5 0 .9-.2 1.3-.5l5.8-5.8c.7-.7.7-1.9 0-2.6-.7-.7-1.9-.7-2.6 0l-5.8 5.8c-.7.7-.7 1.9 0 2.6.3.3.8.5 1.3.5zM13.5 32l-5.8 5.8c-.7.7-.7 1.9 0 2.6.4.4.8.5 1.3.5s.9-.2 1.3-.5l5.8-5.8c.7-.7.7-1.9 0-2.6-.8-.7-1.9-.7-2.6 0zM34.5 32c-.7-.7-1.9-.7-2.6 0-.7.7-.7 1.9 0 2.6l5.8 5.8c.4.4.8.5 1.3.5s.9-.2 1.3-.5c.7-.7.7-1.9 0-2.6l-5.8-5.8zM13.5 16c.4.4.8.5 1.3.5s.9-.2 1.3-.5c.7-.7.7-1.9 0-2.6l-5.8-5.8c-.7-.7-1.9-.7-2.6 0-.7.7-.7 1.9 0 2.6l5.8 5.8z"/></g></svg>