<svg xmlns="http://www.w3.org/2000/svg" viewBox="0 0 48 48" enable-background="new 0 0 48 48"><path fill="#fff" d="M37 19.8h-.8c-1.2-3.7-4.7-6.3-8.8-6.3-.4 0-1 0-1.6.1-2.3-1.9-4.8-2.8-7.6-2.8-6.1 0-11.1 4.3-12.1 10.5-2.6 1.7-4.4 4.5-4.4 7.2 0 4.8 4 8.7 8.8 8.7h26.5c5 0 9.3-4 9.3-8.7 0-4.7-4.3-8.7-9.3-8.7zm0 13.8h-26.4c-3.3 0-5.3-2.6-5.3-5.1 0-1.7 1.3-3.5 3.2-4.5l.9-.4.1-1c.5-4.7 4.2-8.2 8.7-8.2 2.2 0 4 .8 5.8 2.5l.7.6.9-.2c.3-.1 1.2-.2 1.7-.2 2.9 0 5.3 2.1 5.6 5l.2 2 2-.5c.6-.1 1.1-.2 1.7-.2 3 0 5.7 2.4 5.7 5.1.2 2.7-2.5 5.1-5.5 5.1z"/></svg>