<svg xmlns="http://www.w3.org/2000/svg" viewBox="0 0 48 48" enable-background="new 0 0 48 48"><g fill="#fff"><path d="M47 10.7c-.1-.5-.7-.9-1.2-.7l-3.2.9-1.9-1.3 1.8-1.1 3.3.9h.3c.4 0 .9-.3 1-.7.1-.5-.2-1.1-.7-1.2l-1.6-.5 1.6-1c.5-.3.6-.9.3-1.4-.3-.5-.9-.6-1.4-.3l-.9.6.2-.6c.1-.5-.2-1.1-.7-1.2-.5-.1-1.1.2-1.2.7l-.7 2.8-2.1 1.4v-2.4l2.1-2.2c.4-.4.4-1 0-1.4-.4-.4-1-.4-1.4 0l-.8.8v-1.1c0-.6-.5-1-1-1-.6 0-1 .5-1 1v1.1l-.8-.8c-.4-.4-1-.4-1.4 0-.4.4-.4 1 0 1.4l2.2 2.2v2l-2.2-1.5-.7-2.4c-.1-.5-.7-.9-1.2-.7-.5.1-.9.7-.7 1.2v.2l-.8-.5c-.5-.3-1.1-.2-1.4.3-.3.5-.2 1.1.3 1.4l1.9 1.3-1.9.5c-.5.1-.9.7-.7 1.2.1.5.5.7 1 .7h.3l3.5-.9s.1 0 .1-.1l1.7 1.3-2.1 1.3-3.3-.9c-.5-.1-1.1.2-1.2.7-.1.5.2 1.1.7 1.2l1.5.4-1.5 1c-.5.3-.6.9-.3 1.4.2.3.5.5.8.5.2 0 .4-.1.5-.2l.9-.6-.2.7c-.1.5.2 1.1.7 1.2h.3c.4 0 .9-.3 1-.7l.8-2.8 2.1-1.3v2.2l-2.2 2.3c-.4.4-.4 1 0 1.4.2.2.5.3.7.3.3 0 .5-.1.7-.3l.8-.8v1c0 .6.5 1 1 1 .6 0 1-.5 1-1v-1l.8.8c.4.4 1 .4 1.4 0 .4-.4.4-1 0-1.4l-2.2-2.2v-2.4l2.1 1.4.8 2.9c.1.4.5.7 1 .7h.3c.5-.1.9-.7.7-1.2l-.2-.7.9.6c.2.1.4.2.6.2.3 0 .6-.2.8-.4.3-.5.2-1.1-.3-1.4l-1.5-1 1.5-.4c.5-.3.8-.8.6-1.4zM30.7 29.4l.5.1c.9 0 1.6-.6 1.9-1.4.3-1-.3-2.1-1.4-2.4l-3-.8 3-1.9c.9-.6 1.2-1.8.6-2.7-.6-.9-1.8-1.2-2.7-.6l-1.7 1.1.3-1.2c.3-1-.3-2.1-1.4-2.4-1-.3-2.1.3-2.4 1.4l-1.4 5.3-4 2.6v-4.3l4.3-4.3c.8-.8.8-2 0-2.7-.8-.8-2-.8-2.7 0l-1.6 1.5v-2.1c0-1.1-.9-1.9-1.9-1.9-1.1 0-1.9.9-1.9 1.9v2.1l-1.6-1.6c-.8-.8-2-.8-2.7 0-.8.8-.8 2 0 2.7l4.3 4.3v3.9l-4.2-2.8-1.3-4.7c-.3-1-1.3-1.7-2.4-1.4-1 .3-1.6 1.3-1.4 2.4l.1.5-1.5-1c-.9-.6-2.1-.4-2.7.5-.6.9-.4 2.1.5 2.7l3.7 2.5-3.7 1c-1 .2-1.6 1.3-1.3 2.3.2.9 1 1.4 1.9 1.4.2 0 .3 0 .5-.1l6.7-1.8.3-.1 3.5 2.3-4 2.6-6.3-1.7c-1-.3-2.1.3-2.4 1.4-.3 1 .3 2.1 1.4 2.4l2.9.8-2.9 1.9c-.9.6-1.2 1.8-.6 2.7.4.6 1 .9 1.6.9.4 0 .7-.1 1-.3l1.7-1.1-.3 1.3c-.3 1 .3 2.1 1.4 2.4h.4c.9 0 1.6-.6 1.9-1.4l1.4-5.4 4-2.6v4.3l-4.3 4.3c-.8.8-.8 2 0 2.7.4.4.9.6 1.4.6.5 0 1-.2 1.4-.6l1.6-1.6v2c0 1.1.9 1.9 1.9 1.9 1.1 0 1.9-.9 1.9-1.9v-2l1.6 1.6c.8.8 2 .8 2.7 0 .8-.8.8-2 0-2.7l-4.3-4.3v-4.6l4 2.7 1.5 5.6c.2.9 1 1.4 1.9 1.4.2 0 .3 0 .5-.1 1-.3 1.6-1.3 1.4-2.4l-.4-1.3 1.7 1.1c.3.2.7.3 1.1.3.6 0 1.2-.3 1.6-.9.6-.9.4-2.1-.5-2.7l-2.9-1.9 2.9-.8c1-.3 1.6-1.3 1.4-2.4-.3-1-1.3-1.7-2.4-1.4l-6.1 1.6-3.7-2.5 3.4-2.2 6.3 2z"/></g></svg>