<svg xmlns="http://www.w3.org/2000/svg" viewBox="0 0 48 48" enable-background="new 0 0 48 48"><path fill="#fff" d="M46.9 20.1c0-3.9-3.5-7.1-7.4-7-1.1-2.8-3.7-4.7-6.6-4.7-.2 0-.6 0-1 .1-1.7-1.4-3.5-2.1-5.6-2.1-4.6 0-8.3 3.3-9.2 8-.9.6-1.7 1.5-2.2 2.4-5 .5-9 4.4-9.9 9.7-2.4 1.6-3.9 4.2-3.9 6.8 0 4.5 3.6 8.2 8.1 8.2h23.5c4.6 0 8.5-3.7 8.5-8.2 0-2.5-1.2-4.7-3-6.2h1.6c3.8 0 7.1-3.2 7.1-7zm-26.5-3.3l.1-1c.3-3.3 2.7-5.6 5.7-5.6 1.4 0 2.6.5 3.8 1.7l.7.7.9-.2c.2 0 .8-.1 1.1-.1 1.8 0 3.3 1.4 3.5 3.3l.2 2.1 2-.5c.4-.1.7-.1 1.1-.1 2.1 0 3.6 1.7 3.6 3.3 0 1.5-1.5 3.3-3.6 3.3h-8.5c-1.5-2.5-4.2-4.1-7.1-4.1-.3 0-.8 0-1.4.1-1.1-.9-2.2-1.6-3.4-2l.2-.1 1.1-.8zm12.3 21h-23.5c-2.8 0-4.5-2.3-4.5-4.5 0-1.5 1.1-3.1 2.8-4l.9-.5.1-1c.4-4.3 3.6-7.4 7.5-7.4 1.9 0 3.5.7 5 2.2l.7.7.9-.2c.3-.1 1-.1 1.5-.1 2.5 0 4.5 1.9 4.8 4.4l.2 2.1 2-.5c.5-.1 1-.2 1.5-.2 2.8 0 4.9 2.4 4.9 4.5.1 2.1-2 4.5-4.8 4.5z"/></svg>