<svg xmlns="http://www.w3.org/2000/svg" viewBox="0 0 542 103" enable-background="new 0 0 542 103"><circle fill="#FF382C" cx="64.2" cy="51.5" r="42.5"/><g fill="#fff"><path d="M56.8 36.9h-15.399999999999999v8.3h12.200000000000001v20.700000000000003h9v-29h-2.8zM84.2 57.5h-9.3v-20.6h-9.7v29.000000000000004h21.3v-8.399999999999999z"/></g><g fill="#3B3434"><path d="M160.7 38v26.5h-8.3v-19.9h-10.8v-6.6h19.1zM191.9 64.5h-8.3v-26.5h11.7c3.7 0 6.5.8 8.4 2.3 1.9 1.6 2.9 3.7 2.9 6.4 0 1.7-.4 3.2-1.3 4.6-.8 1.4-2.1 2.4-3.9 3.1l6.6 10.2h-9.3l-4.7-8.1-2.2.2v7.8zm2.7-13.8c1.3-.1 2.1-.5 2.6-1 .6-.5.8-1.3.8-2.4 0-1-.3-1.6-1-2.1-.6-.5-1.7-.6-3.3-.6h-1.9v6.1h2.8zM254.3 58.7c-.6 1.5-1.4 2.7-2.4 3.7-1.1 1-2.3 1.7-3.9 2.1-1.5.5-3.2.7-5 .7-1.8 0-3.4-.2-4.9-.6-1.5-.4-2.8-1-3.9-1.9-1.1-.9-1.8-2-2.4-3.4-.6-1.4-.8-3.1-.8-5.1v-16.1h8.3v15.1c0 1.8.2 3.1.9 4 .6.8 1.6 1.3 3.1 1.3 1.4 0 2.2-.4 2.8-1.1.6-.7.7-2 .7-3.9v-15.4h8.3v15.4c-.1 2-.2 3.8-.8 5.2zM293.7 44.6v19.9h-8.3v-19.9h-7.4v-6.6h24v6.6h-8.3zM341.5 64.5v-9.9h-8.3v9.9h-8.2v-26.5h8.3v10h8.3v-10h8.3v26.5h-8.4zM373 64.5v-26.5h3.3v23.2h13.2v3.3h-16.5zM437 64.5h-3.7l-2.5-6.6h-11.5l-2.5 6.6h-3.8l10-26.5h4.1l9.9 26.5zm-12-22.5l-4.6 12.6h9.1l-4.5-12.6zM473.8 50.9c1.8.5 3.1 1.2 4 2.3.9 1.1 1.4 2.4 1.4 3.9 0 1.1-.2 2.2-.6 3.1-.4.9-1 1.7-1.8 2.4s-1.8 1.1-3.1 1.5c-1.2.4-2.7.5-4.4.5h-9.3v-26.6h9.1c3.2 0 5.6.6 7 1.9 1.5 1.3 2.2 3 2.2 5.1.1 2.8-1.4 4.7-4.5 5.9zm1-5.6c0-1.3-.5-2.2-1.4-2.9-.9-.7-2.2-1-4-1h-5.3v8.3h4.7c1.9 0 3.4-.4 4.4-1.2 1-.8 1.6-1.9 1.6-3.2zm.8 11.7c0-1.5-.6-2.6-1.8-3.2-1.2-.6-2.8-.9-4.6-.9h-5v8.3h5.6c3.8 0 5.8-1.4 5.8-4.2zM511 61.9c1.7 0 3.1-.4 4.2-1.2 1.1-.8 1.6-1.9 1.6-3.2 0-1.4-.5-2.4-1.5-3-1-.7-2.6-1.3-4.8-1.8l-2.8-.9c-.9-.4-1.8-.8-2.6-1.4-.8-.6-1.4-1.3-1.8-2.2-.5-.9-.7-2-.7-3.2 0-1.1.2-2.1.6-3 .4-.9 1-1.7 1.8-2.4s1.7-1.2 2.8-1.5c1.1-.4 2.3-.5 3.6-.5 3.1 0 5.9.8 8.4 2.3l-1.3 3.1c-1-.7-2.2-1.2-3.4-1.6-1.3-.4-2.5-.6-3.7-.6-1.9 0-3.3.4-4.1 1.2-.8.8-1.3 1.7-1.3 2.8 0 1.3.5 2.3 1.7 3 1.1.6 2.7 1.2 4.8 1.8 1 .3 1.9.6 2.9 1 .9.4 1.8.9 2.5 1.5s1.3 1.4 1.8 2.3c.4.9.7 2 .7 3.2 0 1.1-.2 2.2-.7 3.2-.5 1-1.1 1.8-1.9 2.5-.8.7-1.8 1.3-3 1.7-1.2.4-2.4.6-3.8.6-1.6 0-3.1-.2-4.7-.6-1.5-.4-3-1.1-4.2-1.9l1.2-3.3c1.1.7 2.3 1.4 3.6 1.8 1.1.1 2.5.3 4.1.3z"/></g></svg>