<svg xmlns="http://www.w3.org/2000/svg" viewBox="0 0 48 48" enable-background="new 0 0 48 48"><g fill="#fff"><path d="M39.2 21c-.1.9.6 1.7 1.4 1.7l3.7.4c.9.1 1.7-.6 1.7-1.4.1-.9-.6-1.7-1.4-1.7l-3.6-.4c-.9-.1-1.7.5-1.8 1.4zM30.9 10.8c.9.1 1.7-.6 1.7-1.4l.4-3.7c0-.9-.6-1.7-1.5-1.8-.9-.1-1.7.6-1.7 1.4l-.4 3.7c-.1.9.6 1.7 1.5 1.8zM21.8 12.6c.3.3.7.5 1.1.6.4 0 .8-.1 1.2-.4.7-.6.8-1.6.2-2.2l-2.3-2.8c-.6-.7-1.6-.8-2.2-.2-.7.6-.8 1.6-.2 2.2l2.2 2.8zM38.2 14.7c.4 0 .8-.1 1.2-.4l2.8-2.3c.7-.6.8-1.6.2-2.2-.6-.7-1.6-.8-2.2-.2l-2.8 2.3c-.7.6-.8 1.6-.2 2.2.2.4.6.6 1 .6zM37.4 26.1h-.8c-.3-.9-.8-1.8-1.3-2.5.6-.8.9-1.8 1.1-2.9.3-3.5-2.2-6.6-5.7-6.9-3.1-.3-5.9 1.7-6.7 4.6-1.8-1-3.8-1.6-5.9-1.6-6.3 0-11.4 4.5-12.5 10.8-2.9 1.8-4.6 4.7-4.6 7.5 0 4.9 4.1 9 9.2 9h27.3c5.2 0 9.6-4.1 9.6-9-.1-4.9-4.5-9-9.7-9zm-7.1-9.1c1.7.2 3 1.7 2.8 3.4 0 .3-.1.6-.3.9-1.5-1.1-3.4-1.7-5.4-1.7h-.6c.3-1.6 1.8-2.8 3.5-2.6zm7.1 23.3h-27.3c-3.4 0-5.4-2.7-5.4-5.2 0-1.7 1.4-3.6 3.3-4.6l.9-.5.1-1c.5-4.9 4.3-8.5 9-8.5 2.3 0 4.1.8 6 2.5l.7.7 1-.2c.4-.1 1.2-.2 1.8-.2 3 0 5.5 2.2 5.8 5.2l.3 2.1 2.1-.5c.6-.2 1.2-.2 1.8-.2 3.1 0 5.9 2.5 5.9 5.2-.1 2.8-2.8 5.2-6 5.2z"/></g></svg>