<svg xmlns="http://www.w3.org/2000/svg" viewBox="0 0 48 48" enable-background="new 0 0 48 48"><g fill="#fff"><path d="M24.7 30.5l.9.1c4.1 0 7.6-3.1 8.1-7.2.3-2.2-.4-4.3-1.7-6-1.4-1.7-3.3-2.8-5.5-3-4.5-.7-8.5 2.6-9 7-.5 4.5 2.7 8.6 7.2 9.1zm-3.5-8.7c.3-2.2 2.2-3.9 4.4-3.9h.5c1.2.1 2.2.7 3 1.7.7.9 1.1 2.1.9 3.3-.3 2.4-2.5 4.2-4.9 3.9-2.4-.3-4.2-2.5-3.9-5zM45.5 22.8l-7.7-.9c-1-.1-1.9.6-2.1 1.6-.1 1 .6 1.9 1.6 2.1l7.7.9h.2c.9 0 1.7-.7 1.8-1.6.3-1-.4-2-1.5-2.1zM5.7 22l7.7.9h.2c.9 0 1.7-.7 1.8-1.6.1-1-.6-1.9-1.6-2.1l-7.7-.9c-1-.1-1.9.6-2.1 1.6 0 1 .7 1.9 1.7 2.1zM26.8 12.3h.2c.9 0 1.7-.7 1.8-1.6l.9-7.7c.1-1-.6-1.9-1.6-2.1-1-.1-1.9.6-2.1 1.6l-.9 7.7c-.1 1 .7 2 1.7 2.1zM35.3 16.6c.4 0 .8-.1 1.2-.4l6.1-4.8c.8-.6.9-1.8.3-2.6-.6-.8-1.8-.9-2.6-.3l-6.1 4.8c-.8.6-.9 1.8-.3 2.6.3.4.9.7 1.4.7zM34.8 30.9c-.6-.8-1.8-.9-2.6-.3-.8.6-.9 1.8-.3 2.6l4.8 6.1c.4.5.9.7 1.5.7.4 0 .8-.1 1.2-.4.8-.6.9-1.8.3-2.6l-4.9-6.1zM16.5 13.8c.4.5.9.7 1.5.7.4 0 .8-.1 1.2-.4.8-.6.9-1.8.3-2.6l-4.8-6.1c-.6-.8-1.8-.9-2.6-.3-.8.6-.9 1.8-.3 2.6l4.7 6.1zM23.6 34.8c-1-2.3-3.3-3.9-6-3.9h-.8c-1.5-1.2-3.1-1.7-5-1.7-4.1 0-7.4 2.8-8.2 6.8-1.7 1.2-2.8 3.1-2.8 5 0 3.4 2.8 6.2 6.3 6.2h16.5c3.5 0 6.5-2.8 6.5-6.2 0-3.3-3-6.2-6.5-6.2zm0 8.6h-16.5c-1.6 0-2.5-1.3-2.5-2.4 0-.8.7-1.7 1.6-2.2l.9-.5.1-1c.3-2.6 2.2-4.5 4.7-4.5 1.2 0 2.1.4 3.1 1.3l.7.7 1-.2c.1 0 .6-.1.9-.1 1.4 0 2.6 1.1 2.8 2.5l.3 2.1 2.1-.5c.3-.1.6-.1.9-.1 1.6 0 2.8 1.3 2.8 2.4-.1 1.3-1.3 2.5-2.9 2.5z"/></g></svg>