<svg xmlns="http://www.w3.org/2000/svg" viewBox="0 0 48 48" enable-background="new 0 0 48 48"><g fill="#fff"><path d="M33.1 30.9h-.6c-1.2-3.4-4.4-5.7-8.2-5.7-.3 0-.9 0-1.4.1-2.1-1.7-4.4-2.6-7-2.6-5.6 0-10.2 4-11.2 9.6-2.4 1.6-4 4.2-4 6.7 0 4.5 3.7 8.1 8.3 8.1h24.1c4.7 0 8.7-3.7 8.7-8.1 0-4.4-4-8.1-8.7-8.1zm0 12.5h-24.1c-2.8 0-4.6-2.3-4.6-4.4 0-1.4 1.2-3 2.8-3.9l.9-.5.1-1c.4-4.2 3.7-7.2 7.7-7.2 1.9 0 3.5.7 5.1 2.2l.7.7 1-.2c.3-.1 1-.1 1.5-.1 2.5 0 4.6 1.9 4.9 4.3l.3 2.1 2.1-.5c.5-.1 1-.2 1.5-.2 2.8 0 4.9 2.3 4.9 4.4.1 2-2 4.3-4.8 4.3zM29.7 24.9c3.7 0 6.7-3 6.7-6.7s-3-6.7-6.7-6.7-6.7 3-6.7 6.7 3 6.7 6.7 6.7zm0-9.7c1.7 0 3 1.3 3 3s-1.3 3-3 3-3-1.3-3-3 1.4-3 3-3zM29.7 8.6c1 0 1.9-.8 1.9-1.9v-4c0-1-.8-1.9-1.9-1.9-1 0-1.9.8-1.9 1.9v4c.1 1.1.9 1.9 1.9 1.9zM45.4 16.5h-4c-1 0-1.9.8-1.9 1.9 0 1 .8 1.9 1.9 1.9h4c1 0 1.9-.8 1.9-1.9 0-1-.9-1.9-1.9-1.9zM14.1 20.2h4c1 0 1.9-.8 1.9-1.9 0-1-.8-1.9-1.9-1.9h-4c-1 0-1.9.8-1.9 1.9 0 1.1.8 1.9 1.9 1.9zM38 12c.5 0 1-.2 1.3-.5l2.8-2.8c.7-.7.7-1.9 0-2.6-.7-.7-1.9-.7-2.6 0l-2.8 2.8c-.7.7-.7 1.9 0 2.6.3.3.8.5 1.3.5zM20.2 11.5c.4.4.8.5 1.3.5s1-.2 1.3-.5c.7-.7.7-1.9 0-2.6l-2.8-2.9c-.7-.7-1.9-.7-2.6 0-.7.7-.7 1.9 0 2.6l2.8 2.9zM39.3 25.3c-.7-.7-1.9-.7-2.6 0-.7.7-.7 1.9 0 2.6l2.8 2.8c.4.4.8.5 1.3.5s1-.2 1.3-.5c.7-.7.7-1.9 0-2.6l-2.8-2.8z"/></g></svg>