<svg xmlns="http://www.w3.org/2000/svg" viewBox="0 0 48 48" enable-background="new 0 0 48 48"><g fill="#fff"><path d="M39.5 7.8c-1-2.6-3.6-4.4-6.5-4.4h-.9c-1.6-1.3-3.4-1.9-5.4-1.9-2.9 0-5.4 1.3-7.1 3.4 1.6.4 3.2 1.1 4.7 2.1h.6c4.1 0 7.9 2.3 9.8 5.8 4.2.4 7.7 3.1 9.3 6.6 1.6-1.2 2.7-3.1 2.7-5.1-.1-3.6-3.4-6.6-7.2-6.5zM33.5 15.5h-.6c-1.2-3.4-4.4-5.7-8.1-5.7-.3 0-.9 0-1.4.1-2.1-1.7-4.4-2.6-6.9-2.6-5.6 0-10.1 4-11.1 9.6-2.4 1.6-4 4.1-4 6.6 0 4.2 3.3 7.6 7.5 8l-.3.5c-.4.9 0 2 .9 2.4.2.1.5.2.7.2.7 0 1.3-.4 1.6-1l.9-1.9h5.9l-.1.3c-.4.9 0 2 .9 2.4.2.1.5.2.7.2.7 0 1.3-.4 1.6-1l.9-1.9h5.9l-.1.3c-.4.9 0 2 .9 2.4.2.1.5.2.7.2.7 0 1.3-.4 1.6-1l.9-1.9h1c4.7 0 8.6-3.7 8.6-8 0-4.5-3.9-8.2-8.6-8.2zM17.9 37.6c-.9-.4-2 0-2.4.9l-2.5 5.4c-.4.9 0 2 .9 2.4.2.1.5.2.7.2.7 0 1.3-.4 1.6-1l2.5-5.4c.5-1 .1-2.1-.8-2.5zM8 37.6c-.9-.4-2 0-2.4.9l-2.5 5.4c-.4.9 0 2 .9 2.4.2.1.5.2.7.2.7 0 1.3-.4 1.6-1l2.6-5.5c.4-.9 0-2-.9-2.4zM27.8 37.6c-.9-.4-2 0-2.4.9l-2.5 5.4c-.4.9 0 2 .9 2.4.2.1.5.2.7.2.7 0 1.3-.4 1.6-1l2.5-5.4c.5-1 .1-2.1-.8-2.5z"/></g></svg>