<?xml version="1.0" encoding="utf-8"?>
<!-- Generator: Adobe Illustrator 17.1.0, SVG Export Plug-In . SVG Version: 6.00 Build 0)  -->
<!DOCTYPE svg PUBLIC "-//W3C//DTD SVG 1.1//EN" "http://www.w3.org/Graphics/SVG/1.1/DTD/svg11.dtd">
<svg version="1.1" id="Layer_1" xmlns="http://www.w3.org/2000/svg" xmlns:xlink="http://www.w3.org/1999/xlink" x="0px" y="0px"
	 viewBox="0 0 500 90" enable-background="new 0 0 500 90" xml:space="preserve">
<g display="none">
	<defs>
		<rect id="SVGID_1_" x="305.6" y="364.3" width="58" height="78"/>
	</defs>
	<clipPath id="SVGID_2_" display="inline">
		<use xlink:href="#SVGID_1_"  overflow="visible"/>
	</clipPath>
	<g display="inline" clip-path="url(#SVGID_2_)">
		
			<image overflow="visible" width="400" height="300" xlink:href="9B6B135079A54FA4.png"  transform="matrix(1 0 0 1 182.0712 241.1954)">
		</image>
	</g>
</g>
<g display="none">
	<path display="inline" opacity="0.8" d="M404.6,297.9v57c0,2.2-1.3,4.4-3.5,4.4h-60.9l-8.1,8.1l-8.1-8.1h-75.9
		c-2.2,0-4.5-2.2-4.5-4.4v-57c0-2.2,2.3-3.6,4.5-3.6h153C403.3,294.3,404.6,295.7,404.6,297.9z"/>
	<g display="inline">
		<text transform="matrix(1 0 0 1 271.6294 338.1869)" fill="#FFFFFF" font-family="'ProximaNova-Semibold'" font-size="13">.977</text>
	</g>
	
		<text transform="matrix(1 0 0 1 305.3711 318.3172)" display="inline" opacity="0.6" fill="#FFFFFF" font-family="'ProximaNova-Regular'" font-size="13">Procedures</text>
	
		<text transform="matrix(1 0 0 1 273.2784 317.6873)" display="inline" fill="#FFFFFF" font-family="'ProximaNova-Semibold'" font-size="13">400</text>
	
		<text transform="matrix(1 0 0 1 305.528 338.8172)" display="inline" opacity="0.6" fill="#FFFFFF" font-family="'ProximaNova-Regular'" font-size="13">Yield Efficiency</text>
</g>
<g>
	<path fill="#FF382C" d="M87.4,45c0,23.2-18.8,42.1-42.1,42.1C22.1,87.1,3.2,68.2,3.2,45S22.1,2.9,45.3,2.9
		C68.6,2.9,87.4,21.8,87.4,45L87.4,45z"/>
	<polygon fill="#FFFFFF" points="37.9,30.5 34.9,30.5 31.9,30.5 28.9,30.5 25.8,30.5 22.7,30.5 22.7,32.5 22.7,35.6 22.7,38.8 
		25.8,38.8 28.9,38.8 31.9,38.8 34.8,38.8 34.8,41.6 34.8,44.6 34.8,47.6 34.8,50.7 34.8,53.7 34.8,56.7 34.8,59.2 37.9,59.2 
		40.9,59.2 43.7,59.2 43.7,56.7 43.7,53.7 43.7,50.7 43.7,47.6 43.7,44.6 43.7,41.6 43.7,38.6 43.7,35.6 43.7,32.5 43.7,30.5 
		40.9,30.5 37.9,30.5 	"/>
	<polygon fill="#FFFFFF" points="65.1,50.9 62.1,50.9 59.1,50.9 55.8,50.9 55.8,47.6 55.8,44.6 55.8,41.6 55.8,38.6 55.8,35.6 
		55.8,32.5 55.8,30.5 53,30.5 50,30.5 46.3,30.5 46.3,32.5 46.3,35.6 46.3,38.6 46.3,41.6 46.3,44.6 46.3,47.6 46.3,50.7 46.3,53.7 
		46.3,56.7 46.3,59.2 50,59.2 53,59.2 56,59.2 59.1,59.2 62.1,59.2 65.1,59.2 67.3,59.2 67.3,56.7 67.3,53.7 67.3,50.9 65.1,50.9 	
		"/>
	<polygon fill="#3B3434" points="140.8,31.6 140.8,57.9 132.6,57.9 132.6,38.2 121.9,38.2 121.9,31.6 140.8,31.6 	"/>
	<path fill="#3B3434" d="M174.4,44.2c1.3-0.1,2.1-0.5,2.6-1c0.6-0.5,0.8-1.3,0.8-2.4c0-1-0.3-1.6-0.9-2c-0.6-0.5-1.7-0.6-3.2-0.6
		h-1.9v6L174.4,44.2L174.4,44.2z M171.7,57.9h-8.2V31.6h11.6c3.7,0,6.5,0.7,8.4,2.3c1.9,1.6,2.8,3.6,2.8,6.3c0,1.7-0.4,3.2-1.2,4.5
		c-0.8,1.3-2.1,2.3-3.9,3l6.5,10.1h-9.2l-4.6-8l-2.2,0.2V57.9L171.7,57.9z"/>
	<path fill="#3B3434" d="M233.5,52.2c-0.6,1.5-1.3,2.7-2.4,3.6c-1.1,1-2.3,1.7-3.8,2.1c-1.5,0.5-3.1,0.7-4.9,0.7
		c-1.7,0-3.3-0.2-4.8-0.6c-1.5-0.4-2.8-1-3.9-1.9c-1.1-0.9-1.8-2-2.4-3.4c-0.6-1.4-0.8-3.1-0.8-5.1V31.7h8.2v14.9
		c0,1.8,0.2,3.1,0.9,3.9c0.6,0.8,1.6,1.3,3.1,1.3c1.4,0,2.2-0.4,2.8-1.1c0.6-0.7,0.7-2,0.7-3.9V31.7h8.2v15.2
		C234.2,48.9,234.1,50.7,233.5,52.2L233.5,52.2z"/>
	<polygon fill="#3B3434" points="272.5,38.2 272.5,57.9 264.3,57.9 264.3,38.2 256.9,38.2 256.9,31.6 280.7,31.6 280.7,38.2 
		272.5,38.2 	"/>
	<polygon fill="#3B3434" points="319.8,57.9 319.8,48 311.6,48 311.6,57.9 303.4,57.9 303.4,31.6 311.6,31.6 311.6,41.5 319.8,41.5 
		319.8,31.6 328,31.6 328,57.9 319.8,57.9 	"/>
	<polygon fill="#3B3434" points="351,57.9 351,31.6 354.2,31.6 354.2,54.6 367.3,54.6 367.3,57.9 351,57.9 	"/>
	<path fill="#3B3434" d="M402.5,35.6L397.9,48h9.1L402.5,35.6L402.5,35.6z M414.3,57.9h-3.7l-2.5-6.6h-11.4l-2.5,6.6h-3.7l9.9-26.2
		h4.1L414.3,57.9L414.3,57.9z"/>
	<path fill="#3B3434" d="M452.5,50.5c0-1.5-0.6-2.6-1.8-3.2c-1.2-0.6-2.7-0.9-4.6-0.9h-5v8.2h5.5C450.6,54.6,452.5,53.3,452.5,50.5
		L452.5,50.5z M451.7,38.9c0-1.3-0.4-2.2-1.3-2.9c-0.9-0.7-2.2-1-4-1h-5.2v8.2h4.7c1.9,0,3.4-0.4,4.4-1.2
		C451.2,41.2,451.7,40.2,451.7,38.9L451.7,38.9z M450.8,44.4c1.8,0.4,3.1,1.2,4,2.3c0.9,1.1,1.3,2.3,1.3,3.8c0,1.1-0.2,2.1-0.6,3
		c-0.4,0.9-1,1.7-1.8,2.3c-0.8,0.7-1.8,1.1-3.1,1.5c-1.2,0.4-2.7,0.5-4.4,0.5h-9.3V31.6h9c3.2,0,5.5,0.6,7,1.9c1.5,1.3,2.2,3,2.2,5
		C455.3,41.3,453.8,43.2,450.8,44.4L450.8,44.4z"/>
	<path fill="#3B3434" d="M487.5,55.3c1.7,0,3.1-0.4,4.1-1.2c1.1-0.8,1.6-1.9,1.6-3.2c0-1.3-0.5-2.3-1.5-3c-1-0.7-2.6-1.3-4.8-1.8
		c-0.9-0.3-1.9-0.6-2.8-0.9c-0.9-0.4-1.8-0.8-2.5-1.4c-0.7-0.6-1.4-1.3-1.8-2.2c-0.5-0.9-0.7-1.9-0.7-3.2c0-1.1,0.2-2.1,0.6-3
		c0.4-0.9,1-1.7,1.8-2.4c0.8-0.7,1.7-1.2,2.8-1.5c1.1-0.4,2.3-0.5,3.6-0.5c3,0,5.8,0.8,8.3,2.3l-1.3,3.1c-1-0.7-2.1-1.2-3.4-1.6
		c-1.2-0.4-2.4-0.6-3.6-0.6c-1.9,0-3.3,0.4-4.1,1.1c-0.8,0.8-1.2,1.7-1.2,2.8c0,1.3,0.5,2.3,1.6,2.9c1.1,0.6,2.7,1.2,4.8,1.8
		c1,0.3,1.9,0.6,2.8,1c0.9,0.4,1.8,0.9,2.5,1.5c0.7,0.6,1.3,1.4,1.8,2.2c0.4,0.9,0.7,1.9,0.7,3.2c0,1.1-0.2,2.2-0.7,3.1
		c-0.5,1-1.1,1.8-1.9,2.5c-0.8,0.7-1.8,1.2-2.9,1.6c-1.1,0.4-2.4,0.6-3.8,0.6c-1.5,0-3.1-0.2-4.6-0.6c-1.5-0.4-2.9-1.1-4.2-1.9
		l1.2-3.3c1.1,0.7,2.3,1.3,3.5,1.8C484.6,55.1,486,55.3,487.5,55.3L487.5,55.3z"/>
</g>
</svg>
