<?xml version="1.0" encoding="utf-8"?>
<!-- Generator: Adobe Illustrator 17.1.0, SVG Export Plug-In . SVG Version: 6.00 Build 0)  -->
<!DOCTYPE svg PUBLIC "-//W3C//DTD SVG 1.1//EN" "http://www.w3.org/Graphics/SVG/1.1/DTD/svg11.dtd">
<svg version="1.1" id="Layer_1" xmlns="http://www.w3.org/2000/svg" xmlns:xlink="http://www.w3.org/1999/xlink" x="0px" y="0px"
	 viewBox="0 0 152 152" enable-background="new 0 0 152 152" xml:space="preserve">
<g display="none">
	<defs>
		<rect id="SVGID_1_" x="55.6" y="197.2" width="58" height="78"/>
	</defs>
	<clipPath id="SVGID_2_" display="inline">
		<use xlink:href="#SVGID_1_"  overflow="visible"/>
	</clipPath>
	<g display="inline" clip-path="url(#SVGID_2_)">
		
			<image overflow="visible" width="400" height="300" xlink:href="EB7435D93C598E0.png"  transform="matrix(1 0 0 1 -67.9288 74.1282)">
		</image>
	</g>
</g>
<g display="none">
	<path display="inline" opacity="0.8" d="M154.6,130.8v57c0,2.2-1.3,4.4-3.5,4.4H90.2l-8.1,8.1l-8.1-8.1H-1.9
		c-2.2,0-4.5-2.2-4.5-4.4v-57c0-2.2,2.3-3.6,4.5-3.6h153C153.3,127.2,154.6,128.6,154.6,130.8z"/>
	<g display="inline">
		<text transform="matrix(1 0 0 1 21.6294 171.1196)" fill="#FFFFFF" font-family="'ProximaNova-Semibold'" font-size="13">.977</text>
	</g>
	
		<text transform="matrix(1 0 0 1 55.3711 151.25)" display="inline" opacity="0.6" fill="#FFFFFF" font-family="'ProximaNova-Regular'" font-size="13">Procedures</text>
	
		<text transform="matrix(1 0 0 1 23.2784 150.6201)" display="inline" fill="#FFFFFF" font-family="'ProximaNova-Semibold'" font-size="13">400</text>
	
		<text transform="matrix(1 0 0 1 55.528 171.75)" display="inline" opacity="0.6" fill="#FFFFFF" font-family="'ProximaNova-Regular'" font-size="13">Yield Efficiency</text>
</g>
<g>
	<path fill="#FF382C" d="M-402.8-111.6c0,35.1-28.4,63.5-63.5,63.5s-63.5-28.4-63.5-63.5c0-35.1,28.4-63.5,63.5-63.5
		S-402.8-146.7-402.8-111.6L-402.8-111.6z"/>
	<polygon fill="#FFFFFF" points="-477.5,-135.2 -482,-135.2 -486.6,-135.2 -491.1,-135.2 -495.7,-135.2 -500.7,-135.2 
		-500.7,-130.4 -500.7,-125.8 -500.7,-121 -495.7,-121 -491.1,-121 -486.6,-121 -482.3,-121 -482.3,-116.7 -482.3,-112.2 
		-482.3,-107.6 -482.3,-103.1 -482.3,-98.5 -482.3,-93.9 -482.3,-90 -477.5,-90 -472.9,-90 -468.2,-90 -468.2,-93.9 -468.2,-98.5 
		-468.2,-103.1 -468.2,-107.6 -468.2,-112.2 -468.2,-116.7 -468.2,-121.3 -468.2,-125.8 -468.2,-130.4 -468.2,-135.2 -472.9,-135.2 
		-477.5,-135.2 	"/>
	<polygon fill="#FFFFFF" points="-436.5,-104.1 -441,-104.1 -445.6,-104.1 -451.3,-104.1 -451.3,-107.6 -451.3,-112.2 
		-451.3,-116.7 -451.3,-121.3 -451.3,-125.8 -451.3,-130.4 -451.3,-135.2 -454.7,-135.2 -459.3,-135.2 -464,-135.2 -464,-130.4 
		-464,-125.8 -464,-121.3 -464,-116.7 -464,-112.2 -464,-107.6 -464,-103.1 -464,-98.5 -464,-93.9 -464,-90 -459.3,-90 -454.7,-90 
		-450.2,-90 -445.6,-90 -441,-90 -436.5,-90 -432.9,-90 -432.9,-93.9 -432.9,-98.5 -432.9,-104.1 -436.5,-104.1 	"/>
</g>
<g>
	<rect x="-0.4" y="-0.8" fill="#FF372C" width="153" height="153"/>
	<g>
		<path fill="#FFFFFF" d="M105.8,85.6v3.8v3.2h-2.6h-3.8h-3.8h-3.8h-3.8h-3.8h-4.2v-3.2v-3.8v-3.8v-3.8v-3.8v-3.8v-3.8V63v-3.8v-3.9
			h4.2h3.8H91v3.9V63v3.8v3.8v3.8v3.8V81h4.7h3.8h3.8h2.6V85.6L105.8,85.6z M76.9,59.3V63v3.8v3.8v3.8v3.8v3.8v3.8v3.8v3.2h-3.8
			h-3.8h-4v-3.2v-3.8v-3.8v-3.8v-3.8v-3.8v-3.6h-3.5H58h-3.8h-3.8V63v-3.8v-3.9h3.8H58h3.8h3.8h3.8h3.8h3.8V59.3L76.9,59.3z
			 M78.6,22.3c-29,0-52.5,23.5-52.5,52.5s23.5,52.5,52.5,52.5s52.5-23.5,52.5-52.5S107.6,22.3,78.6,22.3L78.6,22.3z"/>
	</g>
</g>
</svg>
