<?xml version="1.0" encoding="utf-8"?>
<!-- Generator: Adobe Illustrator 17.1.0, SVG Export Plug-In . SVG Version: 6.00 Build 0)  -->
<!DOCTYPE svg PUBLIC "-//W3C//DTD SVG 1.1//EN" "http://www.w3.org/Graphics/SVG/1.1/DTD/svg11.dtd">
<svg version="1.1" id="Layer_1" xmlns="http://www.w3.org/2000/svg" xmlns:xlink="http://www.w3.org/1999/xlink" x="0px" y="0px"
	 viewBox="0 0 114 114" enable-background="new 0 0 114 114" xml:space="preserve">
<g display="none">
	<defs>
		<rect id="SVGID_1_" x="36.6" y="178.2" width="58" height="78"/>
	</defs>
	<clipPath id="SVGID_2_" display="inline">
		<use xlink:href="#SVGID_1_"  overflow="visible"/>
	</clipPath>
	<g display="inline" clip-path="url(#SVGID_2_)">
		
			<image overflow="visible" width="400" height="300" xlink:href="2B637ECB8310D8D9.png"  transform="matrix(1 0 0 1 -86.9288 55.1282)">
		</image>
	</g>
</g>
<g display="none">
	<path display="inline" opacity="0.8" d="M135.6,111.8v57c0,2.2-1.3,4.4-3.5,4.4H71.2l-8.1,8.1l-8.1-8.1h-75.9
		c-2.2,0-4.5-2.2-4.5-4.4v-57c0-2.2,2.3-3.6,4.5-3.6h153C134.3,108.2,135.6,109.6,135.6,111.8z"/>
	<g display="inline">
		<text transform="matrix(1 0 0 1 2.6294 152.1196)" fill="#FFFFFF" font-family="'ProximaNova-Semibold'" font-size="13">.977</text>
	</g>
	
		<text transform="matrix(1 0 0 1 36.3711 132.25)" display="inline" opacity="0.6" fill="#FFFFFF" font-family="'ProximaNova-Regular'" font-size="13">Procedures</text>
	
		<text transform="matrix(1 0 0 1 4.2784 131.6201)" display="inline" fill="#FFFFFF" font-family="'ProximaNova-Semibold'" font-size="13">400</text>
	
		<text transform="matrix(1 0 0 1 36.528 152.75)" display="inline" opacity="0.6" fill="#FFFFFF" font-family="'ProximaNova-Regular'" font-size="13">Yield Efficiency</text>
</g>
<g>
	<path fill="#FF382C" d="M-421.8-130.6c0,35.1-28.4,63.5-63.5,63.5s-63.5-28.4-63.5-63.5s28.4-63.5,63.5-63.5
		S-421.8-165.7-421.8-130.6L-421.8-130.6z"/>
	<polygon fill="#FFFFFF" points="-496.5,-154.2 -501,-154.2 -505.6,-154.2 -510.1,-154.2 -514.7,-154.2 -519.7,-154.2 
		-519.7,-149.4 -519.7,-144.8 -519.7,-140 -514.7,-140 -510.1,-140 -505.6,-140 -501.3,-140 -501.3,-135.7 -501.3,-131.2 
		-501.3,-126.6 -501.3,-122.1 -501.3,-117.5 -501.3,-112.9 -501.3,-109 -496.5,-109 -491.9,-109 -487.2,-109 -487.2,-112.9 
		-487.2,-117.5 -487.2,-122.1 -487.2,-126.6 -487.2,-131.2 -487.2,-135.7 -487.2,-140.3 -487.2,-144.8 -487.2,-149.4 -487.2,-154.2 
		-491.9,-154.2 -496.5,-154.2 	"/>
	<polygon fill="#FFFFFF" points="-455.5,-123.1 -460,-123.1 -464.6,-123.1 -470.3,-123.1 -470.3,-126.6 -470.3,-131.2 
		-470.3,-135.7 -470.3,-140.3 -470.3,-144.8 -470.3,-149.4 -470.3,-154.2 -473.7,-154.2 -478.3,-154.2 -483,-154.2 -483,-149.4 
		-483,-144.8 -483,-140.3 -483,-135.7 -483,-131.2 -483,-126.6 -483,-122.1 -483,-117.5 -483,-112.9 -483,-109 -478.3,-109 
		-473.7,-109 -469.2,-109 -464.6,-109 -460,-109 -455.5,-109 -451.9,-109 -451.9,-112.9 -451.9,-117.5 -451.9,-123.1 -455.5,-123.1 
			"/>
</g>
<g>
	<rect x="-1.4" y="0.2" fill="#FF372C" width="115" height="114"/>
	<g>
		<path fill="#FFFFFF" d="M77.8,65.4v2.8v2.4h-2H73h-2.8h-2.8h-2.8h-2.8h-3.1v-2.4v-2.8v-2.8v-2.8V57v-2.8v-2.8v-2.8v-2.8v-2.9h3.1
			h2.8h2.1v2.9v2.8v2.8v2.8V57v2.8V62h3.6H73h2.8h2V65.4L77.8,65.4z M56,45.8v2.8v2.8v2.8V57v2.8v2.8v2.8v2.8v2.4h-2.9h-2.8h-3v-2.4
			v-2.8v-2.8v-2.8V57v-2.8v-2.7h-2.7h-2.8H39h-2.9v-2.9v-2.8v-2.9H39h2.8h2.8h2.8h2.8h2.8H56V45.8L56,45.8z M57.3,18.2
			c-21.8,0-39.5,17.5-39.5,39.1s17.7,39.1,39.5,39.1S96.8,79,96.8,57.4S79.1,18.2,57.3,18.2L57.3,18.2z"/>
	</g>
</g>
</svg>
