<?xml version="1.0" encoding="utf-8"?>
<!-- Generator: Adobe Illustrator 17.1.0, SVG Export Plug-In . SVG Version: 6.00 Build 0)  -->
<!DOCTYPE svg PUBLIC "-//W3C//DTD SVG 1.1//EN" "http://www.w3.org/Graphics/SVG/1.1/DTD/svg11.dtd">
<svg version="1.1" id="Layer_1" xmlns="http://www.w3.org/2000/svg" xmlns:xlink="http://www.w3.org/1999/xlink" x="0px" y="0px"
	 viewBox="0 0 120 120" enable-background="new 0 0 120 120" xml:space="preserve">
<g display="none">
	<defs>
		<rect id="SVGID_1_" x="39.6" y="181.2" width="58" height="78"/>
	</defs>
	<clipPath id="SVGID_2_" display="inline">
		<use xlink:href="#SVGID_1_"  overflow="visible"/>
	</clipPath>
	<g display="inline" clip-path="url(#SVGID_2_)">
		
			<image overflow="visible" width="400" height="300" xlink:href="3465E1F8D6A59F02.png"  transform="matrix(1 0 0 1 -83.9288 58.1282)">
		</image>
	</g>
</g>
<g display="none">
	<path display="inline" opacity="0.8" d="M138.6,114.8v57c0,2.2-1.3,4.4-3.5,4.4H74.2l-8.1,8.1l-8.1-8.1h-75.9
		c-2.2,0-4.5-2.2-4.5-4.4v-57c0-2.2,2.3-3.6,4.5-3.6h153C137.3,111.2,138.6,112.6,138.6,114.8z"/>
	<g display="inline">
		<text transform="matrix(1 0 0 1 5.6294 155.1196)" fill="#FFFFFF" font-family="'ProximaNova-Semibold'" font-size="13">.977</text>
	</g>
	
		<text transform="matrix(1 0 0 1 39.3711 135.25)" display="inline" opacity="0.6" fill="#FFFFFF" font-family="'ProximaNova-Regular'" font-size="13">Procedures</text>
	
		<text transform="matrix(1 0 0 1 7.2784 134.6201)" display="inline" fill="#FFFFFF" font-family="'ProximaNova-Semibold'" font-size="13">400</text>
	
		<text transform="matrix(1 0 0 1 39.528 155.75)" display="inline" opacity="0.6" fill="#FFFFFF" font-family="'ProximaNova-Regular'" font-size="13">Yield Efficiency</text>
</g>
<g>
	<path fill="#FF382C" d="M-418.8-127.6c0,35.1-28.4,63.5-63.5,63.5s-63.5-28.4-63.5-63.5c0-35.1,28.4-63.5,63.5-63.5
		S-418.8-162.7-418.8-127.6L-418.8-127.6z"/>
	<polygon fill="#FFFFFF" points="-493.5,-151.2 -498,-151.2 -502.6,-151.2 -507.1,-151.2 -511.7,-151.2 -516.7,-151.2 
		-516.7,-146.4 -516.7,-141.8 -516.7,-137 -511.7,-137 -507.1,-137 -502.6,-137 -498.3,-137 -498.3,-132.7 -498.3,-128.2 
		-498.3,-123.6 -498.3,-119.1 -498.3,-114.5 -498.3,-109.9 -498.3,-106 -493.5,-106 -488.9,-106 -484.2,-106 -484.2,-109.9 
		-484.2,-114.5 -484.2,-119.1 -484.2,-123.6 -484.2,-128.2 -484.2,-132.7 -484.2,-137.3 -484.2,-141.8 -484.2,-146.4 -484.2,-151.2 
		-488.9,-151.2 -493.5,-151.2 	"/>
	<polygon fill="#FFFFFF" points="-452.5,-120.1 -457,-120.1 -461.6,-120.1 -467.3,-120.1 -467.3,-123.6 -467.3,-128.2 
		-467.3,-132.7 -467.3,-137.3 -467.3,-141.8 -467.3,-146.4 -467.3,-151.2 -470.7,-151.2 -475.3,-151.2 -480,-151.2 -480,-146.4 
		-480,-141.8 -480,-137.3 -480,-132.7 -480,-128.2 -480,-123.6 -480,-119.1 -480,-114.5 -480,-109.9 -480,-106 -475.3,-106 
		-470.7,-106 -466.2,-106 -461.6,-106 -457,-106 -452.5,-106 -448.9,-106 -448.9,-109.9 -448.9,-114.5 -448.9,-120.1 -452.5,-120.1 
			"/>
</g>
<g>
	<rect x="-0.4" y="-0.8" fill="#FF372C" width="121" height="121"/>
	<g>
		<path fill="#FFFFFF" d="M81.5,68.8v3v2.5h-2.1h-3h-3h-3h-3h-3h-3.3v-2.5v-3v-3v-3v-3v-3v-3v-3v-3v-3.1h3.3h3h2.2v3.1v3v3v3v3v3
			v2.3h3.7h3h3h2.1V68.8L81.5,68.8z M58.6,47.9v3v3v3v3v3v3v3v3v2.5h-3h-3h-3.2v-2.5v-3v-3v-3v-3v-3V54h-2.8h-3h-3h-3v-3.1v-3v-3.1
			h3h3h3h3h3h3h3V47.9L58.6,47.9z M59.9,18.7c-22.9,0-41.5,18.6-41.5,41.5s18.6,41.5,41.5,41.5s41.5-18.6,41.5-41.5
			S82.9,18.7,59.9,18.7L59.9,18.7z"/>
	</g>
</g>
</svg>
